G75*
%MOIN*%
%OFA0B0*%
%FSLAX25Y25*%
%IPPOS*%
%LPD*%
%AMOC8*
5,1,8,0,0,1.08239X$1,22.5*
%
%ADD10C,0.00000*%
%ADD11C,0.00300*%
%ADD12C,0.07400*%
%ADD13C,0.10000*%
%ADD14OC8,0.10000*%
%ADD15OC8,0.05200*%
%ADD16C,0.01040*%
%ADD17R,0.07400X0.07400*%
%ADD18R,0.07400X0.07400*%
%ADD19C,0.05200*%
%ADD20C,0.06496*%
%ADD21C,0.06600*%
%ADD22C,0.05150*%
%ADD23C,0.11220*%
%ADD24C,0.01600*%
%ADD25R,0.03562X0.03562*%
D10*
X0001800Y0003300D02*
X0001800Y0200150D01*
X0198650Y0200150D01*
X0198650Y0003300D01*
X0001800Y0003300D01*
D11*
X0012567Y0043450D02*
X0011950Y0044067D01*
X0011950Y0046536D01*
X0012567Y0047153D01*
X0013802Y0047153D01*
X0014419Y0046536D01*
X0014419Y0045302D02*
X0013184Y0045302D01*
X0014419Y0045302D02*
X0014419Y0044067D01*
X0013802Y0043450D01*
X0012567Y0043450D01*
X0015633Y0043450D02*
X0015633Y0047153D01*
X0018102Y0043450D01*
X0018102Y0047153D01*
X0019316Y0047153D02*
X0021168Y0047153D01*
X0021785Y0046536D01*
X0021785Y0044067D01*
X0021168Y0043450D01*
X0019316Y0043450D01*
X0019316Y0047153D01*
X0018802Y0063450D02*
X0017567Y0063450D01*
X0016950Y0064067D01*
X0018184Y0065302D02*
X0018802Y0065302D01*
X0019419Y0064684D01*
X0019419Y0064067D01*
X0018802Y0063450D01*
X0020633Y0063450D02*
X0021250Y0063450D01*
X0021250Y0064067D01*
X0020633Y0064067D01*
X0020633Y0063450D01*
X0022475Y0064067D02*
X0023092Y0063450D01*
X0024326Y0063450D01*
X0024943Y0064067D01*
X0024943Y0064684D01*
X0024326Y0065302D01*
X0023709Y0065302D01*
X0024326Y0065302D02*
X0024943Y0065919D01*
X0024943Y0066536D01*
X0024326Y0067153D01*
X0023092Y0067153D01*
X0022475Y0066536D01*
X0019419Y0066536D02*
X0019419Y0065919D01*
X0018802Y0065302D01*
X0019419Y0066536D02*
X0018802Y0067153D01*
X0017567Y0067153D01*
X0016950Y0066536D01*
X0016950Y0073450D02*
X0016950Y0075919D01*
X0018184Y0077153D01*
X0019419Y0075919D01*
X0019419Y0073450D01*
X0019419Y0075302D02*
X0016950Y0075302D01*
X0020633Y0075302D02*
X0023102Y0075302D01*
X0022485Y0077153D02*
X0022485Y0073450D01*
X0020633Y0075302D02*
X0022485Y0077153D01*
X0022485Y0083450D02*
X0021250Y0083450D01*
X0020633Y0084067D01*
X0019419Y0084067D02*
X0019419Y0084684D01*
X0018802Y0085302D01*
X0016950Y0085302D01*
X0016950Y0087153D02*
X0016950Y0083450D01*
X0018802Y0083450D01*
X0019419Y0084067D01*
X0018802Y0085302D02*
X0019419Y0085919D01*
X0019419Y0086536D01*
X0018802Y0087153D01*
X0016950Y0087153D01*
X0020633Y0086536D02*
X0021250Y0087153D01*
X0022485Y0087153D01*
X0023102Y0086536D01*
X0023102Y0085919D01*
X0022485Y0085302D01*
X0023102Y0084684D01*
X0023102Y0084067D01*
X0022485Y0083450D01*
X0022485Y0085302D02*
X0021868Y0085302D01*
X0023102Y0093450D02*
X0020633Y0093450D01*
X0023102Y0095919D01*
X0023102Y0096536D01*
X0022485Y0097153D01*
X0021250Y0097153D01*
X0020633Y0096536D01*
X0019419Y0096536D02*
X0018802Y0097153D01*
X0016950Y0097153D01*
X0016950Y0093450D01*
X0018802Y0093450D01*
X0019419Y0094067D01*
X0019419Y0094684D01*
X0018802Y0095302D01*
X0016950Y0095302D01*
X0018802Y0095302D02*
X0019419Y0095919D01*
X0019419Y0096536D01*
X0018802Y0103450D02*
X0016950Y0103450D01*
X0016950Y0107153D01*
X0018802Y0107153D01*
X0019419Y0106536D01*
X0019419Y0105919D01*
X0018802Y0105302D01*
X0016950Y0105302D01*
X0018802Y0105302D02*
X0019419Y0104684D01*
X0019419Y0104067D01*
X0018802Y0103450D01*
X0020633Y0103450D02*
X0023102Y0103450D01*
X0021868Y0103450D02*
X0021868Y0107153D01*
X0020633Y0105919D01*
X0020633Y0113450D02*
X0023102Y0113450D01*
X0021868Y0113450D02*
X0021868Y0117153D01*
X0020633Y0115919D01*
X0019419Y0115919D02*
X0019419Y0113450D01*
X0019419Y0115302D02*
X0016950Y0115302D01*
X0016950Y0115919D02*
X0018184Y0117153D01*
X0019419Y0115919D01*
X0016950Y0115919D02*
X0016950Y0113450D01*
X0016950Y0123450D02*
X0016950Y0125919D01*
X0018184Y0127153D01*
X0019419Y0125919D01*
X0019419Y0123450D01*
X0020633Y0124067D02*
X0020633Y0126536D01*
X0021250Y0127153D01*
X0022485Y0127153D01*
X0023102Y0126536D01*
X0020633Y0124067D01*
X0021250Y0123450D01*
X0022485Y0123450D01*
X0023102Y0124067D01*
X0023102Y0126536D01*
X0019419Y0125302D02*
X0016950Y0125302D01*
X0026158Y0067153D02*
X0026158Y0064684D01*
X0027392Y0063450D01*
X0028627Y0064684D01*
X0028627Y0067153D01*
X0176950Y0067153D02*
X0176950Y0065302D01*
X0178184Y0065919D01*
X0178802Y0065919D01*
X0179419Y0065302D01*
X0179419Y0064067D01*
X0178802Y0063450D01*
X0177567Y0063450D01*
X0176950Y0064067D01*
X0176950Y0067153D02*
X0179419Y0067153D01*
X0180633Y0067153D02*
X0180633Y0064684D01*
X0181868Y0063450D01*
X0183102Y0064684D01*
X0183102Y0067153D01*
X0180633Y0073450D02*
X0180633Y0074067D01*
X0183102Y0076536D01*
X0183102Y0077153D01*
X0180633Y0077153D01*
X0179419Y0076536D02*
X0179419Y0075919D01*
X0178802Y0075302D01*
X0176950Y0075302D01*
X0176950Y0077153D02*
X0176950Y0073450D01*
X0178802Y0073450D01*
X0179419Y0074067D01*
X0179419Y0074684D01*
X0178802Y0075302D01*
X0179419Y0076536D02*
X0178802Y0077153D01*
X0176950Y0077153D01*
X0176950Y0083450D02*
X0178802Y0083450D01*
X0179419Y0084067D01*
X0179419Y0084684D01*
X0178802Y0085302D01*
X0176950Y0085302D01*
X0176950Y0087153D02*
X0176950Y0083450D01*
X0178802Y0085302D02*
X0179419Y0085919D01*
X0179419Y0086536D01*
X0178802Y0087153D01*
X0176950Y0087153D01*
X0180633Y0086536D02*
X0180633Y0085919D01*
X0181250Y0085302D01*
X0182485Y0085302D01*
X0183102Y0084684D01*
X0183102Y0084067D01*
X0182485Y0083450D01*
X0181250Y0083450D01*
X0180633Y0084067D01*
X0180633Y0084684D01*
X0181250Y0085302D01*
X0182485Y0085302D02*
X0183102Y0085919D01*
X0183102Y0086536D01*
X0182485Y0087153D01*
X0181250Y0087153D01*
X0180633Y0086536D01*
X0181250Y0093450D02*
X0182485Y0093450D01*
X0183102Y0094067D01*
X0183102Y0096536D01*
X0182485Y0097153D01*
X0181250Y0097153D01*
X0180633Y0096536D01*
X0180633Y0095919D01*
X0181250Y0095302D01*
X0183102Y0095302D01*
X0181250Y0093450D02*
X0180633Y0094067D01*
X0179419Y0094067D02*
X0179419Y0094684D01*
X0178802Y0095302D01*
X0176950Y0095302D01*
X0176950Y0097153D02*
X0176950Y0093450D01*
X0178802Y0093450D01*
X0179419Y0094067D01*
X0178802Y0095302D02*
X0179419Y0095919D01*
X0179419Y0096536D01*
X0178802Y0097153D01*
X0176950Y0097153D01*
X0176950Y0103450D02*
X0178802Y0103450D01*
X0179419Y0104067D01*
X0179419Y0104684D01*
X0178802Y0105302D01*
X0176950Y0105302D01*
X0176950Y0107153D02*
X0176950Y0103450D01*
X0178802Y0105302D02*
X0179419Y0105919D01*
X0179419Y0106536D01*
X0178802Y0107153D01*
X0176950Y0107153D01*
X0180633Y0105919D02*
X0181868Y0107153D01*
X0181868Y0103450D01*
X0183102Y0103450D02*
X0180633Y0103450D01*
X0184316Y0104067D02*
X0184933Y0103450D01*
X0186168Y0103450D01*
X0186785Y0104067D01*
X0186785Y0104684D01*
X0186168Y0105302D01*
X0185551Y0105302D01*
X0186168Y0105302D02*
X0186785Y0105919D01*
X0186785Y0106536D01*
X0186168Y0107153D01*
X0184933Y0107153D01*
X0184316Y0106536D01*
X0183102Y0113450D02*
X0180633Y0113450D01*
X0181868Y0113450D02*
X0181868Y0117153D01*
X0180633Y0115919D01*
X0179419Y0115919D02*
X0178802Y0115302D01*
X0176950Y0115302D01*
X0176950Y0117153D02*
X0176950Y0113450D01*
X0178802Y0113450D01*
X0179419Y0114067D01*
X0179419Y0114684D01*
X0178802Y0115302D01*
X0179419Y0115919D02*
X0179419Y0116536D01*
X0178802Y0117153D01*
X0176950Y0117153D01*
X0176950Y0123450D02*
X0178802Y0123450D01*
X0179419Y0124067D01*
X0179419Y0124684D01*
X0178802Y0125302D01*
X0176950Y0125302D01*
X0176950Y0127153D02*
X0176950Y0123450D01*
X0178802Y0125302D02*
X0179419Y0125919D01*
X0179419Y0126536D01*
X0178802Y0127153D01*
X0176950Y0127153D01*
X0180633Y0125919D02*
X0181868Y0127153D01*
X0181868Y0123450D01*
X0183102Y0123450D02*
X0180633Y0123450D01*
X0184316Y0124067D02*
X0184933Y0123450D01*
X0186168Y0123450D01*
X0186785Y0124067D01*
X0186785Y0125302D01*
X0186168Y0125919D01*
X0185551Y0125919D01*
X0184316Y0125302D01*
X0184316Y0127153D01*
X0186785Y0127153D01*
X0186168Y0117153D02*
X0184316Y0115302D01*
X0186785Y0115302D01*
X0186168Y0117153D02*
X0186168Y0113450D01*
X0185633Y0047153D02*
X0188102Y0043450D01*
X0188102Y0047153D01*
X0189316Y0047153D02*
X0191168Y0047153D01*
X0191785Y0046536D01*
X0191785Y0044067D01*
X0191168Y0043450D01*
X0189316Y0043450D01*
X0189316Y0047153D01*
X0185633Y0047153D02*
X0185633Y0043450D01*
X0184419Y0044067D02*
X0184419Y0045302D01*
X0183184Y0045302D01*
X0181950Y0046536D02*
X0181950Y0044067D01*
X0182567Y0043450D01*
X0183802Y0043450D01*
X0184419Y0044067D01*
X0184419Y0046536D02*
X0183802Y0047153D01*
X0182567Y0047153D01*
X0181950Y0046536D01*
D12*
X0192167Y0053301D03*
X0192114Y0063301D03*
X0192062Y0073301D03*
X0192009Y0083301D03*
X0191957Y0093300D03*
X0191905Y0103300D03*
X0191852Y0113300D03*
X0191800Y0143300D03*
X0191800Y0153300D03*
X0191800Y0163300D03*
X0191800Y0173300D03*
X0191800Y0183300D03*
X0191800Y0193300D03*
X0061800Y0158300D03*
X0061800Y0148300D03*
X0061800Y0138300D03*
X0061800Y0093300D03*
X0061800Y0083300D03*
X0061800Y0073300D03*
X0006800Y0073300D03*
X0006800Y0063300D03*
X0006800Y0053300D03*
X0006800Y0083300D03*
X0006800Y0093300D03*
X0006800Y0103300D03*
X0006800Y0113300D03*
X0141800Y0028300D03*
X0141800Y0018300D03*
X0141800Y0008300D03*
D13*
X0141800Y0083300D03*
D14*
X0161800Y0083300D03*
D15*
X0141800Y0108300D03*
X0131800Y0108300D03*
X0141800Y0133300D03*
X0151800Y0133300D03*
X0176800Y0133300D03*
X0141800Y0163300D03*
X0141800Y0173300D03*
X0156800Y0183300D03*
X0166800Y0183300D03*
X0176800Y0183300D03*
X0116800Y0178300D03*
X0116800Y0188300D03*
X0091800Y0183300D03*
X0086800Y0190800D03*
X0081800Y0183300D03*
X0171800Y0058300D03*
X0171800Y0008300D03*
X0061800Y0013300D03*
X0036800Y0028300D03*
X0036800Y0038300D03*
X0011800Y0013300D03*
D16*
X0031447Y0051742D02*
X0030927Y0051222D01*
X0029710Y0052443D01*
X0029713Y0054164D01*
X0030934Y0055381D01*
X0032655Y0055378D01*
X0033872Y0054157D01*
X0033869Y0052436D01*
X0032648Y0051219D01*
X0030927Y0051222D01*
X0031251Y0052001D01*
X0030491Y0052765D01*
X0030492Y0053840D01*
X0031256Y0054600D01*
X0032331Y0054599D01*
X0033091Y0053835D01*
X0033090Y0052760D01*
X0032326Y0052000D01*
X0031251Y0052001D01*
X0031576Y0052781D01*
X0031271Y0053086D01*
X0031272Y0053515D01*
X0031577Y0053820D01*
X0032006Y0053819D01*
X0032311Y0053514D01*
X0032310Y0053085D01*
X0032005Y0052780D01*
X0031576Y0052781D01*
X0031465Y0061742D02*
X0030945Y0061222D01*
X0029728Y0062443D01*
X0029731Y0064164D01*
X0030952Y0065381D01*
X0032673Y0065378D01*
X0033890Y0064157D01*
X0033887Y0062436D01*
X0032666Y0061219D01*
X0030945Y0061222D01*
X0031269Y0062001D01*
X0030509Y0062765D01*
X0030510Y0063840D01*
X0031274Y0064600D01*
X0032349Y0064599D01*
X0033109Y0063835D01*
X0033108Y0062760D01*
X0032344Y0062000D01*
X0031269Y0062001D01*
X0031594Y0062781D01*
X0031289Y0063086D01*
X0031290Y0063515D01*
X0031595Y0063820D01*
X0032024Y0063819D01*
X0032329Y0063514D01*
X0032328Y0063085D01*
X0032023Y0062780D01*
X0031594Y0062781D01*
X0047100Y0084858D02*
X0047620Y0085378D01*
X0048837Y0084157D01*
X0048834Y0082436D01*
X0047613Y0081219D01*
X0045892Y0081222D01*
X0044675Y0082443D01*
X0044678Y0084164D01*
X0045899Y0085381D01*
X0047620Y0085378D01*
X0047296Y0084599D01*
X0048056Y0083835D01*
X0048055Y0082760D01*
X0047291Y0082000D01*
X0046216Y0082001D01*
X0045456Y0082765D01*
X0045457Y0083840D01*
X0046221Y0084600D01*
X0047296Y0084599D01*
X0046971Y0083819D01*
X0047276Y0083514D01*
X0047275Y0083085D01*
X0046970Y0082780D01*
X0046541Y0082781D01*
X0046236Y0083086D01*
X0046237Y0083515D01*
X0046542Y0083820D01*
X0046971Y0083819D01*
X0047188Y0134858D02*
X0047708Y0135378D01*
X0048925Y0134157D01*
X0048922Y0132436D01*
X0047701Y0131219D01*
X0045980Y0131222D01*
X0044763Y0132443D01*
X0044766Y0134164D01*
X0045987Y0135381D01*
X0047708Y0135378D01*
X0047384Y0134599D01*
X0048144Y0133835D01*
X0048143Y0132760D01*
X0047379Y0132000D01*
X0046304Y0132001D01*
X0045544Y0132765D01*
X0045545Y0133840D01*
X0046309Y0134600D01*
X0047384Y0134599D01*
X0047059Y0133819D01*
X0047364Y0133514D01*
X0047363Y0133085D01*
X0047058Y0132780D01*
X0046629Y0132781D01*
X0046324Y0133086D01*
X0046325Y0133515D01*
X0046630Y0133820D01*
X0047059Y0133819D01*
D17*
X0006800Y0123300D03*
D18*
G36*
X0195519Y0119620D02*
X0188120Y0119581D01*
X0188081Y0126980D01*
X0195480Y0127019D01*
X0195519Y0119620D01*
G37*
D19*
X0119400Y0118300D02*
X0114200Y0118300D01*
X0114200Y0108300D02*
X0119400Y0108300D01*
X0119400Y0098300D02*
X0114200Y0098300D01*
X0114200Y0088300D02*
X0119400Y0088300D01*
X0119400Y0078300D02*
X0114200Y0078300D01*
X0114200Y0068300D02*
X0119400Y0068300D01*
X0119400Y0058300D02*
X0114200Y0058300D01*
X0114200Y0048300D02*
X0119400Y0048300D01*
X0119400Y0038300D02*
X0114200Y0038300D01*
X0114200Y0028300D02*
X0119400Y0028300D01*
X0089400Y0028300D02*
X0084200Y0028300D01*
X0084200Y0038300D02*
X0089400Y0038300D01*
X0089400Y0048300D02*
X0084200Y0048300D01*
X0084200Y0058300D02*
X0089400Y0058300D01*
X0089400Y0068300D02*
X0084200Y0068300D01*
X0084200Y0078300D02*
X0089400Y0078300D01*
X0089400Y0088300D02*
X0084200Y0088300D01*
X0084200Y0098300D02*
X0089400Y0098300D01*
X0089400Y0108300D02*
X0084200Y0108300D01*
X0084200Y0118300D02*
X0089400Y0118300D01*
X0089400Y0128300D02*
X0084200Y0128300D01*
X0084200Y0138300D02*
X0089400Y0138300D01*
X0089400Y0148300D02*
X0084200Y0148300D01*
X0084200Y0158300D02*
X0089400Y0158300D01*
X0114200Y0158300D02*
X0119400Y0158300D01*
X0119400Y0148300D02*
X0114200Y0148300D01*
X0114200Y0138300D02*
X0119400Y0138300D01*
X0119400Y0128300D02*
X0114200Y0128300D01*
D20*
X0051800Y0185052D02*
X0051800Y0191548D01*
X0041800Y0191548D02*
X0041800Y0185052D01*
X0031800Y0185052D02*
X0031800Y0191548D01*
D21*
X0021800Y0188300D03*
X0061800Y0188300D03*
D22*
X0036879Y0154599D03*
X0032154Y0151450D03*
X0036879Y0148300D03*
X0032154Y0145150D03*
X0036879Y0142001D03*
D23*
X0016800Y0133930D03*
X0016800Y0162670D03*
D24*
X0023263Y0159954D02*
X0024600Y0159954D01*
X0023810Y0161276D02*
X0022743Y0158699D01*
X0020771Y0156727D01*
X0018194Y0155660D01*
X0015406Y0155660D01*
X0012829Y0156727D01*
X0010857Y0158699D01*
X0009790Y0161276D01*
X0009790Y0164064D01*
X0010857Y0166641D01*
X0012829Y0168613D01*
X0015406Y0169680D01*
X0018194Y0169680D01*
X0020771Y0168613D01*
X0022743Y0166641D01*
X0023810Y0164064D01*
X0023810Y0161276D01*
X0023810Y0161553D02*
X0024600Y0161553D01*
X0024600Y0163151D02*
X0023810Y0163151D01*
X0023526Y0164750D02*
X0024600Y0164750D01*
X0024600Y0165119D02*
X0024600Y0157389D01*
X0025889Y0156100D01*
X0028639Y0153350D01*
X0028180Y0152240D01*
X0028180Y0150659D01*
X0028785Y0149198D01*
X0029683Y0148300D01*
X0028785Y0147402D01*
X0028670Y0147125D01*
X0026727Y0146996D01*
X0025889Y0146996D01*
X0025829Y0146937D01*
X0025745Y0146931D01*
X0025193Y0146300D01*
X0024600Y0145707D01*
X0024600Y0145623D01*
X0024545Y0145560D01*
X0024600Y0144723D01*
X0024600Y0127796D01*
X0023910Y0128486D01*
X0023910Y0128486D01*
X0023292Y0129103D01*
X0022058Y0129103D01*
X0022058Y0129103D01*
X0021887Y0129103D01*
X0022743Y0129959D01*
X0023810Y0132535D01*
X0023810Y0135324D01*
X0022743Y0137901D01*
X0020771Y0139873D01*
X0018194Y0140940D01*
X0015406Y0140940D01*
X0012829Y0139873D01*
X0010857Y0137901D01*
X0009790Y0135324D01*
X0009790Y0132535D01*
X0010857Y0129959D01*
X0012829Y0127987D01*
X0015255Y0126982D01*
X0015000Y0126726D01*
X0015000Y0122642D01*
X0016142Y0121500D01*
X0017758Y0121500D01*
X0018184Y0121927D01*
X0018611Y0121500D01*
X0020226Y0121500D01*
X0020335Y0121608D01*
X0020443Y0121500D01*
X0022493Y0121500D01*
X0023292Y0121500D01*
X0023292Y0121500D01*
X0023292Y0121500D01*
X0023910Y0122117D01*
X0024600Y0122808D01*
X0024600Y0114710D01*
X0023910Y0115400D01*
X0023818Y0115400D01*
X0023818Y0117961D01*
X0022675Y0119103D01*
X0021060Y0119103D01*
X0020026Y0118069D01*
X0018992Y0119103D01*
X0017377Y0119103D01*
X0016234Y0117961D01*
X0015000Y0116726D01*
X0015000Y0112642D01*
X0016142Y0111500D01*
X0017758Y0111500D01*
X0018184Y0111927D01*
X0018611Y0111500D01*
X0023910Y0111500D01*
X0024600Y0112190D01*
X0024600Y0104710D01*
X0023910Y0105400D01*
X0023818Y0105400D01*
X0023818Y0107961D01*
X0022675Y0109103D01*
X0021060Y0109103D01*
X0020335Y0108378D01*
X0020226Y0108486D01*
X0019609Y0109103D01*
X0016142Y0109103D01*
X0015000Y0107961D01*
X0015000Y0102642D01*
X0016142Y0101500D01*
X0018810Y0101500D01*
X0019609Y0101500D01*
X0019609Y0101500D01*
X0019609Y0101500D01*
X0019717Y0101608D01*
X0019825Y0101500D01*
X0023910Y0101500D01*
X0024600Y0102190D01*
X0024600Y0097796D01*
X0024435Y0097961D01*
X0023292Y0099103D01*
X0022058Y0099103D01*
X0022058Y0099103D01*
X0021242Y0099103D01*
X0020443Y0099103D01*
X0020430Y0099090D01*
X0020026Y0098686D01*
X0019609Y0099103D01*
X0016142Y0099103D01*
X0015000Y0097961D01*
X0015000Y0092642D01*
X0016142Y0091500D01*
X0018810Y0091500D01*
X0019609Y0091500D01*
X0019609Y0091500D01*
X0019609Y0091500D01*
X0019717Y0091608D01*
X0019825Y0091500D01*
X0023910Y0091500D01*
X0024600Y0092190D01*
X0024600Y0087796D01*
X0023910Y0088486D01*
X0023292Y0089103D01*
X0022058Y0089103D01*
X0022058Y0089103D01*
X0021259Y0089103D01*
X0020443Y0089103D01*
X0020026Y0088686D01*
X0019609Y0089103D01*
X0016142Y0089103D01*
X0015000Y0087961D01*
X0015000Y0082642D01*
X0016142Y0081500D01*
X0018810Y0081500D01*
X0019609Y0081500D01*
X0019609Y0081500D01*
X0019609Y0081500D01*
X0020026Y0081917D01*
X0020443Y0081500D01*
X0022493Y0081500D01*
X0023292Y0081500D01*
X0023292Y0081500D01*
X0023292Y0081500D01*
X0023910Y0082117D01*
X0024600Y0082808D01*
X0024600Y0082389D01*
X0054600Y0052389D01*
X0055889Y0051100D01*
X0070889Y0051100D01*
X0074600Y0047389D01*
X0074600Y0032389D01*
X0079600Y0027389D01*
X0080706Y0026283D01*
X0080809Y0026034D01*
X0081934Y0024909D01*
X0083404Y0024300D01*
X0090196Y0024300D01*
X0091666Y0024909D01*
X0092791Y0026034D01*
X0093400Y0027504D01*
X0093400Y0029096D01*
X0092791Y0030566D01*
X0091666Y0031691D01*
X0090196Y0032300D01*
X0083404Y0032300D01*
X0081934Y0031691D01*
X0081727Y0031484D01*
X0079000Y0034211D01*
X0079000Y0049211D01*
X0077711Y0050500D01*
X0072711Y0055500D01*
X0057711Y0055500D01*
X0029000Y0084211D01*
X0029000Y0142684D01*
X0029903Y0141781D01*
X0031364Y0141176D01*
X0032580Y0141176D01*
X0032612Y0140976D01*
X0032824Y0140321D01*
X0033137Y0139708D01*
X0033542Y0139151D01*
X0034029Y0138664D01*
X0034586Y0138259D01*
X0035199Y0137946D01*
X0035854Y0137734D01*
X0036534Y0137626D01*
X0036879Y0137626D01*
X0037223Y0137626D01*
X0037903Y0137734D01*
X0038558Y0137946D01*
X0039172Y0138259D01*
X0039729Y0138664D01*
X0040216Y0139151D01*
X0040620Y0139708D01*
X0040933Y0140321D01*
X0041146Y0140976D01*
X0041254Y0141656D01*
X0041254Y0142001D01*
X0041254Y0142345D01*
X0041146Y0143025D01*
X0040933Y0143680D01*
X0040620Y0144294D01*
X0040216Y0144851D01*
X0039729Y0145338D01*
X0039618Y0145418D01*
X0040248Y0146048D01*
X0040270Y0146100D01*
X0042711Y0146100D01*
X0044000Y0147389D01*
X0052711Y0156100D01*
X0052711Y0156100D01*
X0054000Y0157389D01*
X0054000Y0167389D01*
X0057711Y0171100D01*
X0063619Y0171100D01*
X0063619Y0170939D01*
X0064439Y0170119D01*
X0069161Y0170119D01*
X0069981Y0170939D01*
X0069981Y0175661D01*
X0069161Y0176481D01*
X0064439Y0176481D01*
X0063619Y0175661D01*
X0063619Y0175500D01*
X0055889Y0175500D01*
X0054600Y0174211D01*
X0049600Y0169211D01*
X0049600Y0159211D01*
X0040889Y0150500D01*
X0040270Y0150500D01*
X0040248Y0150552D01*
X0039350Y0151450D01*
X0040248Y0152348D01*
X0040854Y0153809D01*
X0040854Y0154242D01*
X0042711Y0156100D01*
X0044000Y0157389D01*
X0044000Y0169211D01*
X0034000Y0179211D01*
X0034000Y0180932D01*
X0034433Y0181112D01*
X0035740Y0182419D01*
X0036448Y0184127D01*
X0036448Y0192473D01*
X0035740Y0194181D01*
X0034433Y0195488D01*
X0032725Y0196196D01*
X0030875Y0196196D01*
X0029167Y0195488D01*
X0027860Y0194181D01*
X0027152Y0192473D01*
X0027152Y0184127D01*
X0027860Y0182419D01*
X0029167Y0181112D01*
X0029600Y0180932D01*
X0029600Y0177389D01*
X0030889Y0176100D01*
X0039600Y0167389D01*
X0039600Y0159211D01*
X0038584Y0158195D01*
X0037669Y0158574D01*
X0036088Y0158574D01*
X0034627Y0157969D01*
X0033509Y0156851D01*
X0032918Y0155424D01*
X0032787Y0155424D01*
X0029000Y0159211D01*
X0029000Y0165119D01*
X0029161Y0165119D01*
X0029981Y0165939D01*
X0029981Y0170661D01*
X0029161Y0171481D01*
X0024439Y0171481D01*
X0023619Y0170661D01*
X0023619Y0165939D01*
X0024439Y0165119D01*
X0024600Y0165119D01*
X0023619Y0166348D02*
X0022864Y0166348D01*
X0023619Y0167947D02*
X0021437Y0167947D01*
X0023619Y0169545D02*
X0018521Y0169545D01*
X0015079Y0169545D02*
X0003600Y0169545D01*
X0003600Y0167947D02*
X0012163Y0167947D01*
X0010736Y0166348D02*
X0003600Y0166348D01*
X0003600Y0164750D02*
X0010074Y0164750D01*
X0009790Y0163151D02*
X0003600Y0163151D01*
X0003600Y0161553D02*
X0009790Y0161553D01*
X0010337Y0159954D02*
X0003600Y0159954D01*
X0003600Y0158356D02*
X0011201Y0158356D01*
X0012799Y0156757D02*
X0003600Y0156757D01*
X0003600Y0155159D02*
X0026830Y0155159D01*
X0025232Y0156757D02*
X0020801Y0156757D01*
X0022399Y0158356D02*
X0024600Y0158356D01*
X0026800Y0158300D02*
X0026800Y0168300D01*
X0029981Y0167947D02*
X0039042Y0167947D01*
X0039600Y0166348D02*
X0029981Y0166348D01*
X0029000Y0164750D02*
X0039600Y0164750D01*
X0039600Y0163151D02*
X0029000Y0163151D01*
X0029000Y0161553D02*
X0039600Y0161553D01*
X0039600Y0159954D02*
X0029000Y0159954D01*
X0029856Y0158356D02*
X0035561Y0158356D01*
X0033470Y0156757D02*
X0031454Y0156757D01*
X0032154Y0152946D02*
X0026800Y0158300D01*
X0028429Y0153560D02*
X0003600Y0153560D01*
X0003600Y0151962D02*
X0028180Y0151962D01*
X0028302Y0150363D02*
X0003600Y0150363D01*
X0003600Y0148765D02*
X0029218Y0148765D01*
X0028687Y0147166D02*
X0003600Y0147166D01*
X0003600Y0145568D02*
X0024551Y0145568D01*
X0024600Y0143969D02*
X0003600Y0143969D01*
X0003600Y0142370D02*
X0024600Y0142370D01*
X0024600Y0140772D02*
X0018600Y0140772D01*
X0021470Y0139173D02*
X0024600Y0139173D01*
X0024600Y0137575D02*
X0022878Y0137575D01*
X0023540Y0135976D02*
X0024600Y0135976D01*
X0024600Y0134378D02*
X0023810Y0134378D01*
X0023810Y0132779D02*
X0024600Y0132779D01*
X0024600Y0131181D02*
X0023249Y0131181D01*
X0022366Y0129582D02*
X0024600Y0129582D01*
X0024600Y0127984D02*
X0024412Y0127984D01*
X0029000Y0127984D02*
X0080200Y0127984D01*
X0080200Y0127504D02*
X0080809Y0126034D01*
X0081934Y0124909D01*
X0083404Y0124300D01*
X0090196Y0124300D01*
X0091666Y0124909D01*
X0092791Y0126034D01*
X0093400Y0127504D01*
X0093400Y0129096D01*
X0092791Y0130566D01*
X0091666Y0131691D01*
X0090196Y0132300D01*
X0083404Y0132300D01*
X0081934Y0131691D01*
X0080809Y0130566D01*
X0080200Y0129096D01*
X0080200Y0127504D01*
X0080663Y0126385D02*
X0029000Y0126385D01*
X0029000Y0124787D02*
X0082229Y0124787D01*
X0083404Y0122300D02*
X0081934Y0121691D01*
X0080809Y0120566D01*
X0080200Y0119096D01*
X0080200Y0117504D01*
X0080809Y0116034D01*
X0081934Y0114909D01*
X0083404Y0114300D01*
X0090196Y0114300D01*
X0091666Y0114909D01*
X0092791Y0116034D01*
X0093400Y0117504D01*
X0093400Y0119096D01*
X0092791Y0120566D01*
X0091666Y0121691D01*
X0090196Y0122300D01*
X0083404Y0122300D01*
X0081833Y0121590D02*
X0029000Y0121590D01*
X0029000Y0123188D02*
X0094600Y0123188D01*
X0094600Y0121590D02*
X0091767Y0121590D01*
X0093029Y0119991D02*
X0094600Y0119991D01*
X0094600Y0118393D02*
X0093400Y0118393D01*
X0093106Y0116794D02*
X0094600Y0116794D01*
X0094600Y0115196D02*
X0091953Y0115196D01*
X0094600Y0113597D02*
X0029000Y0113597D01*
X0029000Y0111999D02*
X0082677Y0111999D01*
X0083404Y0112300D02*
X0081934Y0111691D01*
X0080809Y0110566D01*
X0080200Y0109096D01*
X0080200Y0107504D01*
X0080809Y0106034D01*
X0081934Y0104909D01*
X0083404Y0104300D01*
X0090196Y0104300D01*
X0091666Y0104909D01*
X0092791Y0106034D01*
X0093400Y0107504D01*
X0093400Y0109096D01*
X0092791Y0110566D01*
X0091666Y0111691D01*
X0090196Y0112300D01*
X0083404Y0112300D01*
X0080740Y0110400D02*
X0029000Y0110400D01*
X0029000Y0108802D02*
X0080200Y0108802D01*
X0080325Y0107203D02*
X0029000Y0107203D01*
X0029000Y0105605D02*
X0081238Y0105605D01*
X0083404Y0102300D02*
X0081934Y0101691D01*
X0080809Y0100566D01*
X0080200Y0099096D01*
X0080200Y0097504D01*
X0080809Y0096034D01*
X0081934Y0094909D01*
X0083404Y0094300D01*
X0090196Y0094300D01*
X0091666Y0094909D01*
X0092791Y0096034D01*
X0093400Y0097504D01*
X0093400Y0099096D01*
X0092791Y0100566D01*
X0091666Y0101691D01*
X0090196Y0102300D01*
X0083404Y0102300D01*
X0081052Y0100809D02*
X0029000Y0100809D01*
X0029000Y0099211D02*
X0080248Y0099211D01*
X0080200Y0097612D02*
X0064700Y0097612D01*
X0064689Y0097624D02*
X0062814Y0098400D01*
X0060786Y0098400D01*
X0058911Y0097624D01*
X0057476Y0096189D01*
X0056700Y0094314D01*
X0056700Y0092286D01*
X0057476Y0090411D01*
X0058911Y0088976D01*
X0060037Y0088510D01*
X0059689Y0088397D01*
X0058917Y0088004D01*
X0058217Y0087495D01*
X0057605Y0086883D01*
X0057096Y0086183D01*
X0056703Y0085411D01*
X0056435Y0084588D01*
X0056300Y0083733D01*
X0056300Y0083500D01*
X0061600Y0083500D01*
X0061600Y0083100D01*
X0056300Y0083100D01*
X0056300Y0082867D01*
X0056435Y0082012D01*
X0056703Y0081189D01*
X0057096Y0080417D01*
X0057605Y0079717D01*
X0058217Y0079105D01*
X0058917Y0078596D01*
X0059689Y0078203D01*
X0060037Y0078090D01*
X0058911Y0077624D01*
X0057476Y0076189D01*
X0056700Y0074314D01*
X0056700Y0072286D01*
X0057476Y0070411D01*
X0058911Y0068976D01*
X0060786Y0068200D01*
X0062814Y0068200D01*
X0064689Y0068976D01*
X0066124Y0070411D01*
X0066900Y0072286D01*
X0066900Y0074314D01*
X0066124Y0076189D01*
X0064689Y0077624D01*
X0063563Y0078090D01*
X0063911Y0078203D01*
X0064683Y0078596D01*
X0065383Y0079105D01*
X0065995Y0079717D01*
X0066504Y0080417D01*
X0066897Y0081189D01*
X0067165Y0082012D01*
X0067300Y0082867D01*
X0067300Y0083100D01*
X0062000Y0083100D01*
X0062000Y0083500D01*
X0067300Y0083500D01*
X0067300Y0083733D01*
X0067165Y0084588D01*
X0066897Y0085411D01*
X0066504Y0086183D01*
X0065995Y0086883D01*
X0065383Y0087495D01*
X0064683Y0088004D01*
X0063911Y0088397D01*
X0063563Y0088510D01*
X0064689Y0088976D01*
X0066124Y0090411D01*
X0066900Y0092286D01*
X0066900Y0094314D01*
X0066124Y0096189D01*
X0064689Y0097624D01*
X0066196Y0096014D02*
X0080829Y0096014D01*
X0083126Y0094415D02*
X0066858Y0094415D01*
X0066900Y0092817D02*
X0109172Y0092817D01*
X0107574Y0094415D02*
X0090474Y0094415D01*
X0090430Y0092592D02*
X0089746Y0092700D01*
X0086800Y0092700D01*
X0086800Y0088300D01*
X0086800Y0088300D01*
X0093800Y0088300D01*
X0093800Y0088646D01*
X0093692Y0089330D01*
X0093478Y0089989D01*
X0093163Y0090606D01*
X0092756Y0091166D01*
X0092266Y0091656D01*
X0091706Y0092063D01*
X0091089Y0092378D01*
X0090430Y0092592D01*
X0092704Y0091218D02*
X0110771Y0091218D01*
X0111116Y0090873D02*
X0110809Y0090566D01*
X0110200Y0089096D01*
X0110200Y0087504D01*
X0110809Y0086034D01*
X0111934Y0084909D01*
X0113404Y0084300D01*
X0120196Y0084300D01*
X0121666Y0084909D01*
X0122791Y0086034D01*
X0123400Y0087504D01*
X0123400Y0089096D01*
X0122791Y0090566D01*
X0121666Y0091691D01*
X0120196Y0092300D01*
X0115911Y0092300D01*
X0113911Y0094300D01*
X0120196Y0094300D01*
X0121666Y0094909D01*
X0122791Y0096034D01*
X0123400Y0097504D01*
X0123400Y0099096D01*
X0122791Y0100566D01*
X0121666Y0101691D01*
X0120196Y0102300D01*
X0115911Y0102300D01*
X0113911Y0104300D01*
X0120196Y0104300D01*
X0121666Y0104909D01*
X0122791Y0106034D01*
X0123400Y0107504D01*
X0123400Y0109096D01*
X0122791Y0110566D01*
X0121666Y0111691D01*
X0120196Y0112300D01*
X0113404Y0112300D01*
X0111934Y0111691D01*
X0110809Y0110566D01*
X0110200Y0109096D01*
X0110200Y0108011D01*
X0104000Y0114211D01*
X0104000Y0165119D01*
X0104161Y0165119D01*
X0104981Y0165939D01*
X0104981Y0170661D01*
X0104161Y0171481D01*
X0099981Y0171481D01*
X0099981Y0175661D01*
X0099161Y0176481D01*
X0094439Y0176481D01*
X0093619Y0175661D01*
X0093619Y0170939D01*
X0094439Y0170119D01*
X0094600Y0170119D01*
X0094600Y0107389D01*
X0111116Y0090873D01*
X0110417Y0089620D02*
X0093598Y0089620D01*
X0093800Y0088300D02*
X0086800Y0088300D01*
X0086800Y0088300D01*
X0086800Y0083900D01*
X0089746Y0083900D01*
X0090430Y0084008D01*
X0091089Y0084222D01*
X0091706Y0084537D01*
X0092266Y0084944D01*
X0092756Y0085434D01*
X0093163Y0085994D01*
X0093478Y0086611D01*
X0093692Y0087270D01*
X0093800Y0087954D01*
X0093800Y0088300D01*
X0093800Y0088021D02*
X0110200Y0088021D01*
X0110648Y0086423D02*
X0093382Y0086423D01*
X0092102Y0084824D02*
X0112139Y0084824D01*
X0113404Y0082300D02*
X0111934Y0081691D01*
X0110809Y0080566D01*
X0110200Y0079096D01*
X0110200Y0077504D01*
X0110809Y0076034D01*
X0111934Y0074909D01*
X0113404Y0074300D01*
X0120196Y0074300D01*
X0121666Y0074909D01*
X0122791Y0076034D01*
X0123400Y0077504D01*
X0123400Y0079096D01*
X0122791Y0080566D01*
X0121666Y0081691D01*
X0120196Y0082300D01*
X0113404Y0082300D01*
X0111870Y0081627D02*
X0091730Y0081627D01*
X0091666Y0081691D02*
X0090196Y0082300D01*
X0083404Y0082300D01*
X0081934Y0081691D01*
X0080809Y0080566D01*
X0080200Y0079096D01*
X0080200Y0077504D01*
X0080809Y0076034D01*
X0081934Y0074909D01*
X0083404Y0074300D01*
X0090196Y0074300D01*
X0091666Y0074909D01*
X0092791Y0076034D01*
X0093400Y0077504D01*
X0093400Y0079096D01*
X0092791Y0080566D01*
X0091666Y0081691D01*
X0093014Y0080029D02*
X0110586Y0080029D01*
X0110200Y0078430D02*
X0093400Y0078430D01*
X0093121Y0076832D02*
X0110479Y0076832D01*
X0111610Y0075233D02*
X0091990Y0075233D01*
X0090833Y0072036D02*
X0111856Y0072036D01*
X0111894Y0072063D02*
X0111334Y0071656D01*
X0110844Y0071166D01*
X0110437Y0070606D01*
X0110122Y0069989D01*
X0109908Y0069330D01*
X0109800Y0068646D01*
X0109800Y0068300D01*
X0116800Y0068300D01*
X0116800Y0068300D01*
X0116800Y0072700D01*
X0119746Y0072700D01*
X0120430Y0072592D01*
X0121089Y0072378D01*
X0121706Y0072063D01*
X0122266Y0071656D01*
X0122756Y0071166D01*
X0123163Y0070606D01*
X0123478Y0069989D01*
X0123692Y0069330D01*
X0123800Y0068646D01*
X0123800Y0068300D01*
X0116800Y0068300D01*
X0116800Y0068300D01*
X0116800Y0063900D01*
X0119746Y0063900D01*
X0120430Y0064008D01*
X0121089Y0064222D01*
X0121706Y0064537D01*
X0122266Y0064944D01*
X0122756Y0065434D01*
X0123163Y0065994D01*
X0123478Y0066611D01*
X0123692Y0067270D01*
X0123800Y0067954D01*
X0123800Y0068300D01*
X0116800Y0068300D01*
X0116800Y0068300D01*
X0116800Y0068300D01*
X0116800Y0072700D01*
X0113854Y0072700D01*
X0113170Y0072592D01*
X0112511Y0072378D01*
X0111894Y0072063D01*
X0110351Y0070437D02*
X0092844Y0070437D01*
X0092791Y0070566D02*
X0091666Y0071691D01*
X0090196Y0072300D01*
X0083404Y0072300D01*
X0081934Y0071691D01*
X0080809Y0070566D01*
X0080200Y0069096D01*
X0080200Y0067504D01*
X0080809Y0066034D01*
X0081934Y0064909D01*
X0083404Y0064300D01*
X0090196Y0064300D01*
X0091666Y0064909D01*
X0092791Y0066034D01*
X0093400Y0067504D01*
X0093400Y0069096D01*
X0092791Y0070566D01*
X0093400Y0068839D02*
X0109831Y0068839D01*
X0109800Y0068300D02*
X0109800Y0067954D01*
X0109908Y0067270D01*
X0110122Y0066611D01*
X0110437Y0065994D01*
X0110844Y0065434D01*
X0111334Y0064944D01*
X0111894Y0064537D01*
X0112511Y0064222D01*
X0113170Y0064008D01*
X0113854Y0063900D01*
X0116800Y0063900D01*
X0116800Y0068300D01*
X0109800Y0068300D01*
X0109918Y0067240D02*
X0093291Y0067240D01*
X0092399Y0065642D02*
X0110692Y0065642D01*
X0113062Y0064043D02*
X0049168Y0064043D01*
X0050766Y0062445D02*
X0147834Y0062445D01*
X0149432Y0064043D02*
X0120538Y0064043D01*
X0120196Y0062300D02*
X0121666Y0061691D01*
X0122791Y0060566D01*
X0123400Y0059096D01*
X0123400Y0057504D01*
X0122791Y0056034D01*
X0121666Y0054909D01*
X0120196Y0054300D01*
X0113404Y0054300D01*
X0111934Y0054909D01*
X0110809Y0056034D01*
X0110200Y0057504D01*
X0110200Y0059096D01*
X0110809Y0060566D01*
X0111934Y0061691D01*
X0113404Y0062300D01*
X0120196Y0062300D01*
X0122510Y0060846D02*
X0146235Y0060846D01*
X0144637Y0059248D02*
X0123337Y0059248D01*
X0123400Y0057649D02*
X0143038Y0057649D01*
X0141440Y0056051D02*
X0122798Y0056051D01*
X0120563Y0054452D02*
X0139841Y0054452D01*
X0138243Y0052854D02*
X0104981Y0052854D01*
X0104981Y0054452D02*
X0113037Y0054452D01*
X0113404Y0052300D02*
X0111934Y0051691D01*
X0110809Y0050566D01*
X0110200Y0049096D01*
X0110200Y0047504D01*
X0110809Y0046034D01*
X0111934Y0044909D01*
X0113404Y0044300D01*
X0120196Y0044300D01*
X0121666Y0044909D01*
X0122791Y0046034D01*
X0123400Y0047504D01*
X0123400Y0049096D01*
X0122791Y0050566D01*
X0121666Y0051691D01*
X0120196Y0052300D01*
X0113404Y0052300D01*
X0111498Y0051255D02*
X0104981Y0051255D01*
X0104981Y0050939D02*
X0104161Y0050119D01*
X0104000Y0050119D01*
X0104000Y0014211D01*
X0106730Y0011481D01*
X0109161Y0011481D01*
X0109981Y0010661D01*
X0109981Y0005939D01*
X0109161Y0005119D01*
X0104439Y0005119D01*
X0103619Y0005939D01*
X0103619Y0008370D01*
X0099600Y0012389D01*
X0099600Y0050119D01*
X0099439Y0050119D01*
X0098619Y0050939D01*
X0098619Y0055661D01*
X0099439Y0056481D01*
X0104161Y0056481D01*
X0104981Y0055661D01*
X0104981Y0050939D01*
X0104000Y0049657D02*
X0110432Y0049657D01*
X0110200Y0048058D02*
X0104000Y0048058D01*
X0104000Y0046460D02*
X0110633Y0046460D01*
X0112049Y0044861D02*
X0104000Y0044861D01*
X0104000Y0043263D02*
X0128652Y0043263D01*
X0130250Y0044861D02*
X0121551Y0044861D01*
X0122967Y0046460D02*
X0131849Y0046460D01*
X0133447Y0048058D02*
X0123400Y0048058D01*
X0123168Y0049657D02*
X0135046Y0049657D01*
X0136644Y0051255D02*
X0122102Y0051255D01*
X0120196Y0042300D02*
X0121666Y0041691D01*
X0122791Y0040566D01*
X0123400Y0039096D01*
X0123400Y0038011D01*
X0162000Y0076611D01*
X0162000Y0083100D01*
X0162000Y0083500D01*
X0161600Y0083500D01*
X0161600Y0090100D01*
X0158983Y0090100D01*
X0155000Y0086117D01*
X0155000Y0083500D01*
X0161600Y0083500D01*
X0161600Y0083100D01*
X0162000Y0083100D01*
X0168489Y0083100D01*
X0169583Y0084194D01*
X0169600Y0084815D01*
X0169600Y0127327D01*
X0117929Y0174300D01*
X0115143Y0174300D01*
X0112800Y0176643D01*
X0112800Y0179957D01*
X0115143Y0182300D01*
X0118457Y0182300D01*
X0120800Y0179957D01*
X0120800Y0177637D01*
X0137800Y0162182D01*
X0137800Y0164957D01*
X0140143Y0167300D01*
X0143457Y0167300D01*
X0145800Y0164957D01*
X0145800Y0161643D01*
X0143457Y0159300D01*
X0140971Y0159300D01*
X0172651Y0130500D01*
X0172711Y0130500D01*
X0173319Y0129893D01*
X0173954Y0129315D01*
X0173957Y0129254D01*
X0174000Y0129211D01*
X0174000Y0128352D01*
X0174041Y0127494D01*
X0174000Y0127449D01*
X0174000Y0085659D01*
X0175000Y0084602D01*
X0175000Y0087961D01*
X0176142Y0089103D01*
X0179609Y0089103D01*
X0180026Y0088686D01*
X0180443Y0089103D01*
X0181259Y0089103D01*
X0182058Y0089103D01*
X0182058Y0089103D01*
X0183292Y0089103D01*
X0183910Y0088486D01*
X0185052Y0087344D01*
X0185052Y0084875D01*
X0185052Y0084875D01*
X0185052Y0084367D01*
X0185052Y0083877D01*
X0185052Y0083877D01*
X0185052Y0083259D01*
X0185052Y0083259D01*
X0185039Y0083247D01*
X0183910Y0082117D01*
X0183910Y0082117D01*
X0183292Y0081500D01*
X0183292Y0081500D01*
X0182493Y0081500D01*
X0180443Y0081500D01*
X0180026Y0081917D01*
X0179609Y0081500D01*
X0179609Y0081500D01*
X0178810Y0081500D01*
X0177933Y0081500D01*
X0180199Y0079103D01*
X0183910Y0079103D01*
X0185052Y0077961D01*
X0185052Y0075728D01*
X0184198Y0074874D01*
X0187208Y0071691D01*
X0186962Y0072286D01*
X0186962Y0074315D01*
X0187738Y0076190D01*
X0189173Y0077624D01*
X0190780Y0078290D01*
X0189121Y0078977D01*
X0187686Y0080412D01*
X0186909Y0082286D01*
X0186909Y0084315D01*
X0187686Y0086189D01*
X0189121Y0087624D01*
X0190727Y0088290D01*
X0189068Y0088977D01*
X0187634Y0090411D01*
X0186857Y0092286D01*
X0186857Y0094315D01*
X0187634Y0096189D01*
X0189068Y0097624D01*
X0190675Y0098289D01*
X0189016Y0098977D01*
X0187581Y0100411D01*
X0187085Y0101609D01*
X0186976Y0101500D01*
X0186976Y0101500D01*
X0186976Y0101500D01*
X0186176Y0101500D01*
X0184126Y0101500D01*
X0184018Y0101608D01*
X0183910Y0101500D01*
X0179825Y0101500D01*
X0179717Y0101608D01*
X0179609Y0101500D01*
X0179609Y0101500D01*
X0178810Y0101500D01*
X0176142Y0101500D01*
X0175000Y0102642D01*
X0175000Y0107961D01*
X0176142Y0109103D01*
X0179609Y0109103D01*
X0180226Y0108486D01*
X0180335Y0108378D01*
X0181060Y0109103D01*
X0182675Y0109103D01*
X0183401Y0108378D01*
X0184126Y0109103D01*
X0184942Y0109103D01*
X0185741Y0109103D01*
X0185741Y0109103D01*
X0186976Y0109103D01*
X0187593Y0108486D01*
X0188735Y0107344D01*
X0188735Y0107343D01*
X0189016Y0107624D01*
X0190623Y0108289D01*
X0188963Y0108977D01*
X0187529Y0110411D01*
X0187048Y0111572D01*
X0186976Y0111500D01*
X0185360Y0111500D01*
X0184635Y0112225D01*
X0183910Y0111500D01*
X0179825Y0111500D01*
X0179717Y0111608D01*
X0179609Y0111500D01*
X0179609Y0111500D01*
X0178810Y0111500D01*
X0176142Y0111500D01*
X0175000Y0112642D01*
X0175000Y0117961D01*
X0176142Y0119103D01*
X0179609Y0119103D01*
X0180226Y0118486D01*
X0180335Y0118378D01*
X0181060Y0119103D01*
X0182675Y0119103D01*
X0183818Y0117961D01*
X0183818Y0117561D01*
X0184218Y0117961D01*
X0184218Y0117961D01*
X0185338Y0119081D01*
X0185360Y0119103D01*
X0186384Y0119103D01*
X0186321Y0119334D01*
X0186309Y0121500D01*
X0184126Y0121500D01*
X0184018Y0121608D01*
X0183910Y0121500D01*
X0179825Y0121500D01*
X0179717Y0121608D01*
X0179609Y0121500D01*
X0179609Y0121500D01*
X0178810Y0121500D01*
X0176142Y0121500D01*
X0175000Y0122642D01*
X0175000Y0127961D01*
X0175939Y0128900D01*
X0174977Y0128900D01*
X0172400Y0131477D01*
X0172400Y0133300D01*
X0176800Y0133300D01*
X0176800Y0133300D01*
X0176800Y0137700D01*
X0178623Y0137700D01*
X0181200Y0135123D01*
X0181200Y0133300D01*
X0176800Y0133300D01*
X0176800Y0133300D01*
X0176800Y0133300D01*
X0176800Y0137700D01*
X0174977Y0137700D01*
X0172400Y0135123D01*
X0172400Y0133300D01*
X0176800Y0133300D01*
X0181200Y0133300D01*
X0181200Y0131477D01*
X0178826Y0129103D01*
X0179609Y0129103D01*
X0180226Y0128486D01*
X0180335Y0128378D01*
X0181060Y0129103D01*
X0182675Y0129103D01*
X0183092Y0128686D01*
X0183509Y0129103D01*
X0187593Y0129103D01*
X0187916Y0128780D01*
X0191571Y0128799D01*
X0191599Y0123499D01*
X0191999Y0123501D01*
X0191971Y0128801D01*
X0195708Y0128821D01*
X0196167Y0128700D01*
X0196578Y0128465D01*
X0196800Y0128246D01*
X0196800Y0142044D01*
X0196124Y0140411D01*
X0194689Y0138976D01*
X0192814Y0138200D01*
X0190786Y0138200D01*
X0188911Y0138976D01*
X0187476Y0140411D01*
X0186700Y0142286D01*
X0186700Y0144314D01*
X0187476Y0146189D01*
X0188911Y0147624D01*
X0190544Y0148300D01*
X0188911Y0148976D01*
X0187476Y0150411D01*
X0186700Y0152286D01*
X0186700Y0154314D01*
X0187476Y0156189D01*
X0188911Y0157624D01*
X0190544Y0158300D01*
X0188911Y0158976D01*
X0187476Y0160411D01*
X0186700Y0162286D01*
X0186700Y0164314D01*
X0187476Y0166189D01*
X0188911Y0167624D01*
X0190037Y0168090D01*
X0189689Y0168203D01*
X0188917Y0168596D01*
X0188217Y0169105D01*
X0187605Y0169717D01*
X0187096Y0170417D01*
X0186703Y0171189D01*
X0186435Y0172012D01*
X0186300Y0172867D01*
X0186300Y0173100D01*
X0191600Y0173100D01*
X0191600Y0173500D01*
X0186300Y0173500D01*
X0186300Y0173733D01*
X0186435Y0174588D01*
X0186703Y0175411D01*
X0187096Y0176183D01*
X0187605Y0176883D01*
X0188217Y0177495D01*
X0188917Y0178004D01*
X0189689Y0178397D01*
X0190037Y0178510D01*
X0188911Y0178976D01*
X0187476Y0180411D01*
X0186700Y0182286D01*
X0186700Y0184314D01*
X0187476Y0186189D01*
X0188911Y0187624D01*
X0190544Y0188300D01*
X0188911Y0188976D01*
X0187476Y0190411D01*
X0186700Y0192286D01*
X0186700Y0194314D01*
X0187476Y0196189D01*
X0188911Y0197624D01*
X0190544Y0198300D01*
X0003600Y0198300D01*
X0003600Y0128400D01*
X0011080Y0128400D01*
X0011900Y0127580D01*
X0011900Y0119020D01*
X0011080Y0118200D01*
X0008297Y0118200D01*
X0009689Y0117624D01*
X0011124Y0116189D01*
X0011900Y0114314D01*
X0011900Y0112286D01*
X0011124Y0110411D01*
X0009689Y0108976D01*
X0008056Y0108300D01*
X0009689Y0107624D01*
X0011124Y0106189D01*
X0011900Y0104314D01*
X0011900Y0102286D01*
X0011124Y0100411D01*
X0009689Y0098976D01*
X0008056Y0098300D01*
X0009689Y0097624D01*
X0011124Y0096189D01*
X0011900Y0094314D01*
X0011900Y0092286D01*
X0011124Y0090411D01*
X0009689Y0088976D01*
X0008056Y0088300D01*
X0009689Y0087624D01*
X0011124Y0086189D01*
X0011900Y0084314D01*
X0011900Y0082286D01*
X0011124Y0080411D01*
X0009689Y0078976D01*
X0008056Y0078300D01*
X0009689Y0077624D01*
X0011124Y0076189D01*
X0011900Y0074314D01*
X0011900Y0072286D01*
X0011124Y0070411D01*
X0009689Y0068976D01*
X0008056Y0068300D01*
X0009689Y0067624D01*
X0011124Y0066189D01*
X0011900Y0064314D01*
X0011900Y0062286D01*
X0011124Y0060411D01*
X0009689Y0058976D01*
X0008563Y0058510D01*
X0008911Y0058397D01*
X0009683Y0058004D01*
X0010383Y0057495D01*
X0010995Y0056883D01*
X0011504Y0056183D01*
X0011897Y0055411D01*
X0012165Y0054588D01*
X0012300Y0053733D01*
X0012300Y0053500D01*
X0007000Y0053500D01*
X0007000Y0053100D01*
X0012300Y0053100D01*
X0012300Y0052867D01*
X0012165Y0052012D01*
X0011897Y0051189D01*
X0011504Y0050417D01*
X0010995Y0049717D01*
X0010383Y0049105D01*
X0009683Y0048596D01*
X0008911Y0048203D01*
X0008088Y0047935D01*
X0007233Y0047800D01*
X0007000Y0047800D01*
X0007000Y0053100D01*
X0006600Y0053100D01*
X0006600Y0047800D01*
X0006367Y0047800D01*
X0005512Y0047935D01*
X0004689Y0048203D01*
X0003917Y0048596D01*
X0003600Y0048827D01*
X0003600Y0005100D01*
X0137788Y0005100D01*
X0137476Y0005411D01*
X0136700Y0007286D01*
X0136700Y0009314D01*
X0137476Y0011189D01*
X0138911Y0012624D01*
X0140544Y0013300D01*
X0138911Y0013976D01*
X0137476Y0015411D01*
X0136700Y0017286D01*
X0136700Y0019314D01*
X0137476Y0021189D01*
X0138911Y0022624D01*
X0140037Y0023090D01*
X0139689Y0023203D01*
X0138917Y0023596D01*
X0138217Y0024105D01*
X0137605Y0024717D01*
X0137096Y0025417D01*
X0136703Y0026189D01*
X0136435Y0027012D01*
X0136300Y0027867D01*
X0136300Y0028100D01*
X0141600Y0028100D01*
X0141600Y0028500D01*
X0141600Y0033800D01*
X0141367Y0033800D01*
X0140512Y0033665D01*
X0139689Y0033397D01*
X0138917Y0033004D01*
X0138217Y0032495D01*
X0137605Y0031883D01*
X0137096Y0031183D01*
X0136703Y0030411D01*
X0136435Y0029588D01*
X0136300Y0028733D01*
X0136300Y0028500D01*
X0141600Y0028500D01*
X0142000Y0028500D01*
X0142000Y0033800D01*
X0142233Y0033800D01*
X0143088Y0033665D01*
X0143911Y0033397D01*
X0144683Y0033004D01*
X0145383Y0032495D01*
X0145995Y0031883D01*
X0146504Y0031183D01*
X0146897Y0030411D01*
X0147165Y0029588D01*
X0147300Y0028733D01*
X0147300Y0028500D01*
X0142000Y0028500D01*
X0142000Y0028100D01*
X0147300Y0028100D01*
X0147300Y0027867D01*
X0147165Y0027012D01*
X0146897Y0026189D01*
X0146504Y0025417D01*
X0145995Y0024717D01*
X0145383Y0024105D01*
X0144683Y0023596D01*
X0143911Y0023203D01*
X0143563Y0023090D01*
X0144689Y0022624D01*
X0146124Y0021189D01*
X0146900Y0019314D01*
X0146900Y0017286D01*
X0146124Y0015411D01*
X0144689Y0013976D01*
X0143056Y0013300D01*
X0144689Y0012624D01*
X0146124Y0011189D01*
X0146900Y0009314D01*
X0146900Y0007286D01*
X0146124Y0005411D01*
X0145812Y0005100D01*
X0169343Y0005100D01*
X0167800Y0006643D01*
X0167800Y0009957D01*
X0170143Y0012300D01*
X0173457Y0012300D01*
X0175800Y0009957D01*
X0175800Y0006643D01*
X0174257Y0005100D01*
X0196800Y0005100D01*
X0196800Y0050321D01*
X0196362Y0049718D01*
X0195750Y0049106D01*
X0195049Y0048597D01*
X0194278Y0048204D01*
X0193454Y0047936D01*
X0193185Y0047894D01*
X0193735Y0047344D01*
X0193735Y0044875D01*
X0193735Y0044875D01*
X0193735Y0044075D01*
X0193735Y0043259D01*
X0192593Y0042117D01*
X0192593Y0042117D01*
X0191976Y0041500D01*
X0191976Y0041500D01*
X0191976Y0041500D01*
X0191160Y0041500D01*
X0188692Y0041500D01*
X0188512Y0041379D01*
X0187909Y0041500D01*
X0187294Y0041500D01*
X0187141Y0041654D01*
X0186927Y0041696D01*
X0186811Y0041870D01*
X0186441Y0041500D01*
X0184825Y0041500D01*
X0184717Y0041608D01*
X0184609Y0041500D01*
X0184609Y0041500D01*
X0183793Y0041500D01*
X0181759Y0041500D01*
X0180617Y0042642D01*
X0180000Y0043259D01*
X0180000Y0046544D01*
X0180000Y0047344D01*
X0180000Y0047344D01*
X0180617Y0047961D01*
X0180617Y0047961D01*
X0181747Y0049090D01*
X0181759Y0049103D01*
X0181759Y0049103D01*
X0182559Y0049103D01*
X0183375Y0049103D01*
X0183375Y0049103D01*
X0184609Y0049103D01*
X0184717Y0048995D01*
X0184825Y0049103D01*
X0185043Y0049103D01*
X0185224Y0049224D01*
X0185826Y0049103D01*
X0186441Y0049103D01*
X0186595Y0048949D01*
X0186808Y0048907D01*
X0186924Y0048733D01*
X0187294Y0049103D01*
X0188587Y0049103D01*
X0188584Y0049106D01*
X0187971Y0049718D01*
X0187462Y0050418D01*
X0187069Y0051190D01*
X0186802Y0052013D01*
X0186667Y0052868D01*
X0186666Y0053072D01*
X0191967Y0053100D01*
X0191965Y0053500D01*
X0186667Y0053472D01*
X0186667Y0053734D01*
X0186802Y0054589D01*
X0187069Y0055412D01*
X0187462Y0056184D01*
X0187971Y0056884D01*
X0188584Y0057496D01*
X0189284Y0058005D01*
X0190055Y0058398D01*
X0190374Y0058501D01*
X0189225Y0058977D01*
X0187791Y0060412D01*
X0187014Y0062286D01*
X0187014Y0064315D01*
X0187353Y0065134D01*
X0185052Y0067567D01*
X0185052Y0063877D01*
X0183910Y0062734D01*
X0182675Y0061500D01*
X0181060Y0061500D01*
X0180335Y0062225D01*
X0180226Y0062117D01*
X0180226Y0062117D01*
X0179609Y0061500D01*
X0179609Y0061500D01*
X0178810Y0061500D01*
X0176759Y0061500D01*
X0175000Y0063259D01*
X0175000Y0064841D01*
X0174845Y0065152D01*
X0175000Y0065618D01*
X0175000Y0067961D01*
X0176142Y0069103D01*
X0181441Y0069103D01*
X0181868Y0068676D01*
X0182294Y0069103D01*
X0183600Y0069103D01*
X0181333Y0071500D01*
X0179825Y0071500D01*
X0179717Y0071608D01*
X0179609Y0071500D01*
X0179609Y0071500D01*
X0178810Y0071500D01*
X0176142Y0071500D01*
X0175000Y0072642D01*
X0175000Y0077961D01*
X0175115Y0078076D01*
X0172477Y0080866D01*
X0122484Y0030873D01*
X0122791Y0030566D01*
X0123400Y0029096D01*
X0123400Y0027504D01*
X0122791Y0026034D01*
X0121666Y0024909D01*
X0120196Y0024300D01*
X0113404Y0024300D01*
X0111934Y0024909D01*
X0110809Y0026034D01*
X0110200Y0027504D01*
X0110200Y0029096D01*
X0110809Y0030566D01*
X0111934Y0031691D01*
X0113404Y0032300D01*
X0117689Y0032300D01*
X0119689Y0034300D01*
X0113404Y0034300D01*
X0111934Y0034909D01*
X0110809Y0036034D01*
X0110200Y0037504D01*
X0110200Y0039096D01*
X0110809Y0040566D01*
X0111934Y0041691D01*
X0113404Y0042300D01*
X0120196Y0042300D01*
X0121693Y0041664D02*
X0127053Y0041664D01*
X0125455Y0040066D02*
X0122998Y0040066D01*
X0123400Y0038467D02*
X0123856Y0038467D01*
X0126881Y0035270D02*
X0196800Y0035270D01*
X0196800Y0033672D02*
X0143043Y0033672D01*
X0142000Y0033672D02*
X0141600Y0033672D01*
X0140557Y0033672D02*
X0125283Y0033672D01*
X0123684Y0032073D02*
X0137795Y0032073D01*
X0136735Y0030475D02*
X0122829Y0030475D01*
X0123400Y0028876D02*
X0136323Y0028876D01*
X0136393Y0027278D02*
X0123306Y0027278D01*
X0122436Y0025679D02*
X0136963Y0025679D01*
X0138250Y0024081D02*
X0104000Y0024081D01*
X0104000Y0025679D02*
X0111164Y0025679D01*
X0110294Y0027278D02*
X0104000Y0027278D01*
X0104000Y0028876D02*
X0110200Y0028876D01*
X0110771Y0030475D02*
X0104000Y0030475D01*
X0104000Y0032073D02*
X0112857Y0032073D01*
X0111573Y0035270D02*
X0104000Y0035270D01*
X0104000Y0033672D02*
X0119060Y0033672D01*
X0116800Y0028300D02*
X0171800Y0083300D01*
X0171800Y0084784D01*
X0192114Y0063301D01*
X0188955Y0059248D02*
X0176200Y0059248D01*
X0176200Y0060123D02*
X0173623Y0062700D01*
X0171800Y0062700D01*
X0171800Y0058300D01*
X0171800Y0058300D01*
X0176200Y0058300D01*
X0176200Y0060123D01*
X0175476Y0060846D02*
X0187611Y0060846D01*
X0187014Y0062445D02*
X0183620Y0062445D01*
X0185052Y0064043D02*
X0187014Y0064043D01*
X0186873Y0065642D02*
X0185052Y0065642D01*
X0185052Y0067240D02*
X0185361Y0067240D01*
X0182030Y0068839D02*
X0181705Y0068839D01*
X0182338Y0070437D02*
X0162049Y0070437D01*
X0160450Y0068839D02*
X0175878Y0068839D01*
X0175000Y0067240D02*
X0158852Y0067240D01*
X0157253Y0065642D02*
X0175000Y0065642D01*
X0175000Y0064043D02*
X0155655Y0064043D01*
X0154056Y0062445D02*
X0169722Y0062445D01*
X0169977Y0062700D02*
X0167400Y0060123D01*
X0167400Y0058300D01*
X0171800Y0058300D01*
X0171800Y0058300D01*
X0171800Y0058300D01*
X0171800Y0062700D01*
X0169977Y0062700D01*
X0171800Y0062445D02*
X0171800Y0062445D01*
X0171800Y0060846D02*
X0171800Y0060846D01*
X0171800Y0059248D02*
X0171800Y0059248D01*
X0171800Y0058300D02*
X0167400Y0058300D01*
X0167400Y0056477D01*
X0169977Y0053900D01*
X0171800Y0053900D01*
X0173623Y0053900D01*
X0176200Y0056477D01*
X0176200Y0058300D01*
X0171800Y0058300D01*
X0171800Y0053900D01*
X0171800Y0058300D01*
X0171800Y0058300D01*
X0171800Y0057649D02*
X0171800Y0057649D01*
X0171800Y0056051D02*
X0171800Y0056051D01*
X0171800Y0054452D02*
X0171800Y0054452D01*
X0174175Y0054452D02*
X0186780Y0054452D01*
X0186669Y0052854D02*
X0144465Y0052854D01*
X0146064Y0054452D02*
X0169425Y0054452D01*
X0167827Y0056051D02*
X0147662Y0056051D01*
X0149261Y0057649D02*
X0167400Y0057649D01*
X0167400Y0059248D02*
X0150859Y0059248D01*
X0152458Y0060846D02*
X0168124Y0060846D01*
X0173878Y0062445D02*
X0175815Y0062445D01*
X0179609Y0061500D02*
X0179609Y0061500D01*
X0176200Y0057649D02*
X0188794Y0057649D01*
X0187395Y0056051D02*
X0175773Y0056051D01*
X0180715Y0048058D02*
X0139670Y0048058D01*
X0141268Y0049657D02*
X0188032Y0049657D01*
X0187048Y0051255D02*
X0142867Y0051255D01*
X0138071Y0046460D02*
X0180000Y0046460D01*
X0180000Y0047344D02*
X0180000Y0047344D01*
X0180000Y0044861D02*
X0136473Y0044861D01*
X0134874Y0043263D02*
X0180000Y0043263D01*
X0181595Y0041664D02*
X0133276Y0041664D01*
X0131677Y0040066D02*
X0196800Y0040066D01*
X0196800Y0041664D02*
X0192140Y0041664D01*
X0193735Y0043263D02*
X0196800Y0043263D01*
X0196800Y0044861D02*
X0193735Y0044861D01*
X0193735Y0046460D02*
X0196800Y0046460D01*
X0196800Y0048058D02*
X0193830Y0048058D01*
X0196301Y0049657D02*
X0196800Y0049657D01*
X0196800Y0038467D02*
X0130079Y0038467D01*
X0128480Y0036869D02*
X0196800Y0036869D01*
X0196800Y0032073D02*
X0145805Y0032073D01*
X0146865Y0030475D02*
X0196800Y0030475D01*
X0196800Y0028876D02*
X0147277Y0028876D01*
X0147207Y0027278D02*
X0196800Y0027278D01*
X0196800Y0025679D02*
X0146637Y0025679D01*
X0145350Y0024081D02*
X0196800Y0024081D01*
X0196800Y0022482D02*
X0144830Y0022482D01*
X0146250Y0020884D02*
X0196800Y0020884D01*
X0196800Y0019285D02*
X0146900Y0019285D01*
X0146900Y0017687D02*
X0196800Y0017687D01*
X0196800Y0016088D02*
X0146404Y0016088D01*
X0145202Y0014490D02*
X0196800Y0014490D01*
X0196800Y0012891D02*
X0144043Y0012891D01*
X0146020Y0011293D02*
X0169136Y0011293D01*
X0167800Y0009694D02*
X0146743Y0009694D01*
X0146900Y0008096D02*
X0167800Y0008096D01*
X0167946Y0006497D02*
X0146573Y0006497D01*
X0139557Y0012891D02*
X0105320Y0012891D01*
X0104000Y0014490D02*
X0138398Y0014490D01*
X0137196Y0016088D02*
X0104000Y0016088D01*
X0104000Y0017687D02*
X0136700Y0017687D01*
X0136700Y0019285D02*
X0104000Y0019285D01*
X0104000Y0020884D02*
X0137350Y0020884D01*
X0138770Y0022482D02*
X0104000Y0022482D01*
X0099600Y0022482D02*
X0064000Y0022482D01*
X0064000Y0020884D02*
X0099600Y0020884D01*
X0099600Y0019285D02*
X0064000Y0019285D01*
X0064000Y0017687D02*
X0099600Y0017687D01*
X0099600Y0016088D02*
X0064669Y0016088D01*
X0064000Y0016757D02*
X0065800Y0014957D01*
X0065800Y0011643D01*
X0063457Y0009300D01*
X0060143Y0009300D01*
X0057800Y0011643D01*
X0057800Y0014957D01*
X0059600Y0016757D01*
X0059600Y0032389D01*
X0040889Y0051100D01*
X0035250Y0051100D01*
X0033441Y0049297D01*
X0030127Y0049303D01*
X0027788Y0051650D01*
X0027794Y0054964D01*
X0030141Y0057303D01*
X0033455Y0057297D01*
X0035246Y0055500D01*
X0042711Y0055500D01*
X0062711Y0035500D01*
X0064000Y0034211D01*
X0064000Y0016757D01*
X0065800Y0014490D02*
X0099600Y0014490D01*
X0099600Y0012891D02*
X0065800Y0012891D01*
X0065449Y0011293D02*
X0100696Y0011293D01*
X0102295Y0009694D02*
X0063851Y0009694D01*
X0059749Y0009694D02*
X0014417Y0009694D01*
X0013623Y0008900D02*
X0016200Y0011477D01*
X0016200Y0013300D01*
X0016200Y0015123D01*
X0013623Y0017700D01*
X0011800Y0017700D01*
X0011800Y0013300D01*
X0016200Y0013300D01*
X0011800Y0013300D01*
X0011800Y0013300D01*
X0011800Y0013300D01*
X0011800Y0008900D01*
X0013623Y0008900D01*
X0011800Y0008900D02*
X0011800Y0013300D01*
X0011800Y0013300D01*
X0011800Y0013300D01*
X0007400Y0013300D01*
X0007400Y0015123D01*
X0009977Y0017700D01*
X0011800Y0017700D01*
X0011800Y0013300D01*
X0007400Y0013300D01*
X0007400Y0011477D01*
X0009977Y0008900D01*
X0011800Y0008900D01*
X0011800Y0009694D02*
X0011800Y0009694D01*
X0011800Y0011293D02*
X0011800Y0011293D01*
X0011800Y0012891D02*
X0011800Y0012891D01*
X0011800Y0014490D02*
X0011800Y0014490D01*
X0011800Y0016088D02*
X0011800Y0016088D01*
X0011800Y0017687D02*
X0011800Y0017687D01*
X0013636Y0017687D02*
X0059600Y0017687D01*
X0059600Y0019285D02*
X0003600Y0019285D01*
X0003600Y0017687D02*
X0009964Y0017687D01*
X0008366Y0016088D02*
X0003600Y0016088D01*
X0003600Y0014490D02*
X0007400Y0014490D01*
X0007400Y0012891D02*
X0003600Y0012891D01*
X0003600Y0011293D02*
X0007585Y0011293D01*
X0009183Y0009694D02*
X0003600Y0009694D01*
X0003600Y0008096D02*
X0103619Y0008096D01*
X0103619Y0006497D02*
X0003600Y0006497D01*
X0015234Y0016088D02*
X0058931Y0016088D01*
X0057800Y0014490D02*
X0016200Y0014490D01*
X0016200Y0012891D02*
X0057800Y0012891D01*
X0058151Y0011293D02*
X0016015Y0011293D01*
X0003600Y0020884D02*
X0059600Y0020884D01*
X0059600Y0022482D02*
X0003600Y0022482D01*
X0003600Y0024081D02*
X0034797Y0024081D01*
X0034977Y0023900D02*
X0032400Y0026477D01*
X0032400Y0028300D01*
X0036800Y0028300D01*
X0036800Y0028300D01*
X0036800Y0032700D01*
X0038623Y0032700D01*
X0041200Y0030123D01*
X0041200Y0028300D01*
X0036800Y0028300D01*
X0036800Y0028300D01*
X0036800Y0028300D01*
X0036800Y0032700D01*
X0034977Y0032700D01*
X0032400Y0030123D01*
X0032400Y0028300D01*
X0036800Y0028300D01*
X0041200Y0028300D01*
X0041200Y0026477D01*
X0038623Y0023900D01*
X0036800Y0023900D01*
X0036800Y0028300D01*
X0036800Y0028300D01*
X0036800Y0023900D01*
X0034977Y0023900D01*
X0036800Y0024081D02*
X0036800Y0024081D01*
X0036800Y0025679D02*
X0036800Y0025679D01*
X0036800Y0027278D02*
X0036800Y0027278D01*
X0036800Y0028876D02*
X0036800Y0028876D01*
X0036800Y0030475D02*
X0036800Y0030475D01*
X0036800Y0032073D02*
X0036800Y0032073D01*
X0039249Y0032073D02*
X0059600Y0032073D01*
X0059600Y0030475D02*
X0040848Y0030475D01*
X0041200Y0028876D02*
X0059600Y0028876D01*
X0059600Y0027278D02*
X0041200Y0027278D01*
X0040402Y0025679D02*
X0059600Y0025679D01*
X0059600Y0024081D02*
X0038803Y0024081D01*
X0033198Y0025679D02*
X0003600Y0025679D01*
X0003600Y0027278D02*
X0032400Y0027278D01*
X0032400Y0028876D02*
X0003600Y0028876D01*
X0003600Y0030475D02*
X0032752Y0030475D01*
X0034351Y0032073D02*
X0003600Y0032073D01*
X0003600Y0033672D02*
X0058317Y0033672D01*
X0056718Y0035270D02*
X0039427Y0035270D01*
X0038457Y0034300D02*
X0040800Y0036643D01*
X0040800Y0039957D01*
X0038457Y0042300D01*
X0035143Y0042300D01*
X0032800Y0039957D01*
X0032800Y0036643D01*
X0035143Y0034300D01*
X0038457Y0034300D01*
X0040800Y0036869D02*
X0055120Y0036869D01*
X0053521Y0038467D02*
X0040800Y0038467D01*
X0040691Y0040066D02*
X0051923Y0040066D01*
X0050324Y0041664D02*
X0039093Y0041664D01*
X0034507Y0041664D02*
X0022140Y0041664D01*
X0021976Y0041500D02*
X0022593Y0042117D01*
X0023735Y0043259D01*
X0023735Y0044075D01*
X0023735Y0044875D01*
X0023735Y0047344D01*
X0023118Y0047961D01*
X0021976Y0049103D01*
X0017294Y0049103D01*
X0016924Y0048733D01*
X0016808Y0048907D01*
X0016595Y0048949D01*
X0016441Y0049103D01*
X0015826Y0049103D01*
X0015224Y0049224D01*
X0015043Y0049103D01*
X0014825Y0049103D01*
X0014717Y0048995D01*
X0014609Y0049103D01*
X0013375Y0049103D01*
X0013375Y0049103D01*
X0012559Y0049103D01*
X0011759Y0049103D01*
X0011747Y0049090D01*
X0010617Y0047961D01*
X0010000Y0047344D01*
X0010000Y0047344D01*
X0010000Y0047344D01*
X0010000Y0046544D01*
X0010000Y0043259D01*
X0010617Y0042642D01*
X0011759Y0041500D01*
X0013793Y0041500D01*
X0014609Y0041500D01*
X0014609Y0041500D01*
X0014609Y0041500D01*
X0014717Y0041608D01*
X0014825Y0041500D01*
X0016441Y0041500D01*
X0016811Y0041870D01*
X0016927Y0041696D01*
X0017141Y0041654D01*
X0017294Y0041500D01*
X0017909Y0041500D01*
X0018512Y0041379D01*
X0018692Y0041500D01*
X0021160Y0041500D01*
X0021976Y0041500D01*
X0021976Y0041500D01*
X0021976Y0041500D01*
X0022593Y0042117D02*
X0022593Y0042117D01*
X0023735Y0043263D02*
X0048726Y0043263D01*
X0047127Y0044861D02*
X0023735Y0044861D01*
X0023735Y0044875D02*
X0023735Y0044875D01*
X0023735Y0046460D02*
X0045529Y0046460D01*
X0043930Y0048058D02*
X0023020Y0048058D01*
X0028182Y0051255D02*
X0011919Y0051255D01*
X0012298Y0052854D02*
X0027790Y0052854D01*
X0027793Y0054452D02*
X0012186Y0054452D01*
X0011571Y0056051D02*
X0028885Y0056051D01*
X0031791Y0053300D02*
X0041800Y0053300D01*
X0061800Y0033300D01*
X0061800Y0013300D01*
X0064000Y0024081D02*
X0099600Y0024081D01*
X0099600Y0025679D02*
X0092436Y0025679D01*
X0093306Y0027278D02*
X0099600Y0027278D01*
X0099600Y0028876D02*
X0093400Y0028876D01*
X0092829Y0030475D02*
X0099600Y0030475D01*
X0099600Y0032073D02*
X0090743Y0032073D01*
X0090196Y0034300D02*
X0091666Y0034909D01*
X0092791Y0036034D01*
X0093400Y0037504D01*
X0093400Y0039096D01*
X0092791Y0040566D01*
X0091666Y0041691D01*
X0090196Y0042300D01*
X0083404Y0042300D01*
X0081934Y0041691D01*
X0080809Y0040566D01*
X0080200Y0039096D01*
X0080200Y0037504D01*
X0080809Y0036034D01*
X0081934Y0034909D01*
X0083404Y0034300D01*
X0090196Y0034300D01*
X0092027Y0035270D02*
X0099600Y0035270D01*
X0099600Y0033672D02*
X0079540Y0033672D01*
X0079000Y0035270D02*
X0081573Y0035270D01*
X0080463Y0036869D02*
X0079000Y0036869D01*
X0079000Y0038467D02*
X0080200Y0038467D01*
X0080602Y0040066D02*
X0079000Y0040066D01*
X0079000Y0041664D02*
X0081907Y0041664D01*
X0083404Y0044300D02*
X0090196Y0044300D01*
X0091666Y0044909D01*
X0092791Y0046034D01*
X0093400Y0047504D01*
X0093400Y0049096D01*
X0092791Y0050566D01*
X0091666Y0051691D01*
X0090196Y0052300D01*
X0083404Y0052300D01*
X0081934Y0051691D01*
X0080809Y0050566D01*
X0080200Y0049096D01*
X0080200Y0047504D01*
X0080809Y0046034D01*
X0081934Y0044909D01*
X0083404Y0044300D01*
X0082049Y0044861D02*
X0079000Y0044861D01*
X0079000Y0043263D02*
X0099600Y0043263D01*
X0099600Y0044861D02*
X0091551Y0044861D01*
X0092967Y0046460D02*
X0099600Y0046460D01*
X0099600Y0048058D02*
X0093400Y0048058D01*
X0093168Y0049657D02*
X0099600Y0049657D01*
X0098619Y0051255D02*
X0092102Y0051255D01*
X0090196Y0054300D02*
X0091666Y0054909D01*
X0092791Y0056034D01*
X0093400Y0057504D01*
X0093400Y0059096D01*
X0092791Y0060566D01*
X0091666Y0061691D01*
X0090196Y0062300D01*
X0083404Y0062300D01*
X0081934Y0061691D01*
X0080809Y0060566D01*
X0080200Y0059096D01*
X0080200Y0057504D01*
X0080809Y0056034D01*
X0081934Y0054909D01*
X0083404Y0054300D01*
X0090196Y0054300D01*
X0090563Y0054452D02*
X0098619Y0054452D01*
X0098619Y0052854D02*
X0075357Y0052854D01*
X0073759Y0054452D02*
X0083037Y0054452D01*
X0080802Y0056051D02*
X0057160Y0056051D01*
X0055562Y0057649D02*
X0080200Y0057649D01*
X0080263Y0059248D02*
X0053963Y0059248D01*
X0052365Y0060846D02*
X0081090Y0060846D01*
X0081201Y0065642D02*
X0047569Y0065642D01*
X0045971Y0067240D02*
X0080309Y0067240D01*
X0080200Y0068839D02*
X0064357Y0068839D01*
X0066134Y0070437D02*
X0080756Y0070437D01*
X0082767Y0072036D02*
X0066797Y0072036D01*
X0066900Y0073634D02*
X0159023Y0073634D01*
X0157425Y0072036D02*
X0121744Y0072036D01*
X0123249Y0070437D02*
X0155826Y0070437D01*
X0154228Y0068839D02*
X0123769Y0068839D01*
X0123682Y0067240D02*
X0152629Y0067240D01*
X0151031Y0065642D02*
X0122907Y0065642D01*
X0116800Y0065642D02*
X0116800Y0065642D01*
X0116800Y0067240D02*
X0116800Y0067240D01*
X0116800Y0068839D02*
X0116800Y0068839D01*
X0116800Y0070437D02*
X0116800Y0070437D01*
X0116800Y0072036D02*
X0116800Y0072036D01*
X0121990Y0075233D02*
X0160622Y0075233D01*
X0161600Y0076500D02*
X0158983Y0076500D01*
X0155000Y0080483D01*
X0155000Y0083100D01*
X0161600Y0083100D01*
X0161600Y0076500D01*
X0161600Y0076832D02*
X0162000Y0076832D01*
X0162000Y0078430D02*
X0161600Y0078430D01*
X0161600Y0080029D02*
X0162000Y0080029D01*
X0162000Y0081627D02*
X0161600Y0081627D01*
X0161600Y0083226D02*
X0148200Y0083226D01*
X0148200Y0082027D02*
X0147226Y0079675D01*
X0145425Y0077874D01*
X0143073Y0076900D01*
X0140527Y0076900D01*
X0138175Y0077874D01*
X0136374Y0079675D01*
X0135400Y0082027D01*
X0135400Y0084573D01*
X0136374Y0086925D01*
X0138175Y0088726D01*
X0140527Y0089700D01*
X0143073Y0089700D01*
X0145425Y0088726D01*
X0147226Y0086925D01*
X0148200Y0084573D01*
X0148200Y0082027D01*
X0148034Y0081627D02*
X0155000Y0081627D01*
X0155455Y0080029D02*
X0147372Y0080029D01*
X0145981Y0078430D02*
X0157053Y0078430D01*
X0158652Y0076832D02*
X0123121Y0076832D01*
X0123400Y0078430D02*
X0137619Y0078430D01*
X0136228Y0080029D02*
X0123014Y0080029D01*
X0121730Y0081627D02*
X0135566Y0081627D01*
X0135400Y0083226D02*
X0062000Y0083226D01*
X0061600Y0083226D02*
X0051156Y0083226D01*
X0051156Y0083292D02*
X0046756Y0083300D01*
X0042356Y0083308D01*
X0042360Y0085130D01*
X0044942Y0087703D01*
X0046764Y0087700D01*
X0046756Y0083300D01*
X0046756Y0083300D01*
X0042356Y0083308D01*
X0042353Y0081485D01*
X0044926Y0078903D01*
X0046749Y0078900D01*
X0048571Y0078897D01*
X0051153Y0081470D01*
X0051156Y0083292D01*
X0051160Y0085115D01*
X0048587Y0087697D01*
X0046764Y0087700D01*
X0046756Y0083300D01*
X0046756Y0083300D01*
X0046749Y0078900D01*
X0046756Y0083300D01*
X0046756Y0083300D01*
X0051156Y0083292D01*
X0051159Y0084824D02*
X0056512Y0084824D01*
X0057270Y0086423D02*
X0049856Y0086423D01*
X0046762Y0086423D02*
X0046762Y0086423D01*
X0046759Y0084824D02*
X0046759Y0084824D01*
X0046756Y0083300D02*
X0046756Y0083300D01*
X0046756Y0083226D02*
X0046756Y0083226D01*
X0046753Y0081627D02*
X0046753Y0081627D01*
X0046751Y0080029D02*
X0046751Y0080029D01*
X0049707Y0080029D02*
X0057378Y0080029D01*
X0056561Y0081627D02*
X0051153Y0081627D01*
X0057080Y0075233D02*
X0037978Y0075233D01*
X0036380Y0076832D02*
X0058119Y0076832D01*
X0059243Y0078430D02*
X0034781Y0078430D01*
X0033183Y0080029D02*
X0043805Y0080029D01*
X0042353Y0081627D02*
X0031584Y0081627D01*
X0029986Y0083226D02*
X0042356Y0083226D01*
X0042359Y0084824D02*
X0029000Y0084824D01*
X0029000Y0086423D02*
X0043656Y0086423D01*
X0039577Y0073634D02*
X0056700Y0073634D01*
X0056803Y0072036D02*
X0041175Y0072036D01*
X0042774Y0070437D02*
X0057465Y0070437D01*
X0059243Y0068839D02*
X0044372Y0068839D01*
X0041347Y0065642D02*
X0035122Y0065642D01*
X0035812Y0064950D02*
X0033473Y0067297D01*
X0030577Y0067302D01*
X0030577Y0067961D01*
X0029434Y0069103D01*
X0027819Y0069103D01*
X0027392Y0068676D01*
X0026966Y0069103D01*
X0025350Y0069103D01*
X0025242Y0068995D01*
X0025134Y0069103D01*
X0023900Y0069103D01*
X0023900Y0069103D01*
X0023100Y0069103D01*
X0022284Y0069103D01*
X0021142Y0067961D01*
X0021142Y0067961D01*
X0020947Y0067766D01*
X0020226Y0068486D01*
X0019609Y0069103D01*
X0018375Y0069103D01*
X0018375Y0069103D01*
X0017575Y0069103D01*
X0016759Y0069103D01*
X0015617Y0067961D01*
X0015617Y0067961D01*
X0015000Y0067344D01*
X0015000Y0065728D01*
X0015427Y0065302D01*
X0015000Y0064875D01*
X0015000Y0063259D01*
X0016759Y0061500D01*
X0018810Y0061500D01*
X0019609Y0061500D01*
X0019609Y0061500D01*
X0019609Y0061500D01*
X0019717Y0061608D01*
X0019825Y0061500D01*
X0022058Y0061500D01*
X0022171Y0061613D01*
X0022284Y0061500D01*
X0024335Y0061500D01*
X0025134Y0061500D01*
X0025751Y0062117D01*
X0025751Y0062117D01*
X0025859Y0062225D01*
X0026585Y0061500D01*
X0027955Y0061500D01*
X0030145Y0059303D01*
X0033459Y0059297D01*
X0035806Y0061636D01*
X0035812Y0064950D01*
X0035810Y0064043D02*
X0042945Y0064043D01*
X0044544Y0062445D02*
X0035807Y0062445D01*
X0035013Y0060846D02*
X0046142Y0060846D01*
X0047741Y0059248D02*
X0009960Y0059248D01*
X0010171Y0057649D02*
X0049339Y0057649D01*
X0050938Y0056051D02*
X0034697Y0056051D01*
X0033802Y0049657D02*
X0042332Y0049657D01*
X0045357Y0052854D02*
X0054135Y0052854D01*
X0052536Y0054452D02*
X0043759Y0054452D01*
X0046956Y0051255D02*
X0055733Y0051255D01*
X0056800Y0053300D02*
X0071800Y0053300D01*
X0076800Y0048300D01*
X0076800Y0033300D01*
X0081800Y0028300D01*
X0086800Y0028300D01*
X0082857Y0032073D02*
X0081138Y0032073D01*
X0078113Y0028876D02*
X0064000Y0028876D01*
X0064000Y0027278D02*
X0079711Y0027278D01*
X0081164Y0025679D02*
X0064000Y0025679D01*
X0064000Y0030475D02*
X0076514Y0030475D01*
X0074916Y0032073D02*
X0064000Y0032073D01*
X0064000Y0033672D02*
X0074600Y0033672D01*
X0074600Y0035270D02*
X0062941Y0035270D01*
X0061343Y0036869D02*
X0074600Y0036869D01*
X0074600Y0038467D02*
X0059744Y0038467D01*
X0058145Y0040066D02*
X0074600Y0040066D01*
X0074600Y0041664D02*
X0056547Y0041664D01*
X0054948Y0043263D02*
X0074600Y0043263D01*
X0074600Y0044861D02*
X0053350Y0044861D01*
X0051751Y0046460D02*
X0074600Y0046460D01*
X0073930Y0048058D02*
X0050153Y0048058D01*
X0048554Y0049657D02*
X0072332Y0049657D01*
X0076956Y0051255D02*
X0081498Y0051255D01*
X0080432Y0049657D02*
X0078554Y0049657D01*
X0079000Y0048058D02*
X0080200Y0048058D01*
X0080633Y0046460D02*
X0079000Y0046460D01*
X0091693Y0041664D02*
X0099600Y0041664D01*
X0099600Y0040066D02*
X0092998Y0040066D01*
X0093400Y0038467D02*
X0099600Y0038467D01*
X0099600Y0036869D02*
X0093137Y0036869D01*
X0104000Y0036869D02*
X0110463Y0036869D01*
X0110200Y0038467D02*
X0104000Y0038467D01*
X0104000Y0040066D02*
X0110602Y0040066D01*
X0111907Y0041664D02*
X0104000Y0041664D01*
X0101800Y0053300D02*
X0101800Y0013300D01*
X0106800Y0008300D01*
X0109350Y0011293D02*
X0137580Y0011293D01*
X0136857Y0009694D02*
X0109981Y0009694D01*
X0109981Y0008096D02*
X0136700Y0008096D01*
X0137027Y0006497D02*
X0109981Y0006497D01*
X0141600Y0028876D02*
X0142000Y0028876D01*
X0142000Y0030475D02*
X0141600Y0030475D01*
X0141600Y0032073D02*
X0142000Y0032073D01*
X0174464Y0011293D02*
X0196800Y0011293D01*
X0196800Y0009694D02*
X0175800Y0009694D01*
X0175800Y0008096D02*
X0196800Y0008096D01*
X0196800Y0006497D02*
X0175654Y0006497D01*
X0184609Y0041500D02*
X0184609Y0041500D01*
X0186605Y0041664D02*
X0187087Y0041664D01*
X0186882Y0072036D02*
X0187065Y0072036D01*
X0186962Y0073634D02*
X0185370Y0073634D01*
X0184557Y0075233D02*
X0187342Y0075233D01*
X0188380Y0076832D02*
X0185052Y0076832D01*
X0184583Y0078430D02*
X0190441Y0078430D01*
X0188069Y0080029D02*
X0179324Y0080029D01*
X0179609Y0081500D02*
X0179609Y0081500D01*
X0179736Y0081627D02*
X0180316Y0081627D01*
X0183292Y0081500D02*
X0183292Y0081500D01*
X0183419Y0081627D02*
X0187182Y0081627D01*
X0186909Y0083226D02*
X0185018Y0083226D01*
X0185052Y0084824D02*
X0187120Y0084824D01*
X0187919Y0086423D02*
X0185052Y0086423D01*
X0184374Y0088021D02*
X0190079Y0088021D01*
X0188425Y0089620D02*
X0174000Y0089620D01*
X0174000Y0091218D02*
X0187299Y0091218D01*
X0186857Y0092817D02*
X0184609Y0092817D01*
X0185052Y0093259D02*
X0185052Y0094075D01*
X0185052Y0094875D01*
X0185052Y0097344D01*
X0184435Y0097961D01*
X0183292Y0099103D01*
X0182058Y0099103D01*
X0182058Y0099103D01*
X0181242Y0099103D01*
X0180443Y0099103D01*
X0180430Y0099090D01*
X0180026Y0098686D01*
X0179609Y0099103D01*
X0176142Y0099103D01*
X0175000Y0097961D01*
X0175000Y0092642D01*
X0176142Y0091500D01*
X0178810Y0091500D01*
X0179609Y0091500D01*
X0179609Y0091500D01*
X0179609Y0091500D01*
X0180026Y0091917D01*
X0180443Y0091500D01*
X0182476Y0091500D01*
X0183292Y0091500D01*
X0183292Y0091500D01*
X0183292Y0091500D01*
X0183910Y0092117D01*
X0185052Y0093259D01*
X0185052Y0094415D02*
X0186899Y0094415D01*
X0187561Y0096014D02*
X0185052Y0096014D01*
X0185052Y0094875D02*
X0185052Y0094875D01*
X0184783Y0097612D02*
X0189056Y0097612D01*
X0188782Y0099211D02*
X0174000Y0099211D01*
X0174000Y0100809D02*
X0187416Y0100809D01*
X0180443Y0099103D02*
X0180443Y0099103D01*
X0179609Y0101500D02*
X0179609Y0101500D01*
X0175235Y0102408D02*
X0174000Y0102408D01*
X0174000Y0104006D02*
X0175000Y0104006D01*
X0175000Y0105605D02*
X0174000Y0105605D01*
X0174000Y0107203D02*
X0175000Y0107203D01*
X0175841Y0108802D02*
X0174000Y0108802D01*
X0174000Y0110400D02*
X0187540Y0110400D01*
X0187277Y0108802D02*
X0189385Y0108802D01*
X0184861Y0111999D02*
X0184408Y0111999D01*
X0183824Y0108802D02*
X0182977Y0108802D01*
X0180758Y0108802D02*
X0179911Y0108802D01*
X0179609Y0111500D02*
X0179609Y0111500D01*
X0175644Y0111999D02*
X0174000Y0111999D01*
X0174000Y0113597D02*
X0175000Y0113597D01*
X0175000Y0115196D02*
X0174000Y0115196D01*
X0174000Y0116794D02*
X0175000Y0116794D01*
X0175432Y0118393D02*
X0174000Y0118393D01*
X0174000Y0119991D02*
X0186317Y0119991D01*
X0184650Y0118393D02*
X0183386Y0118393D01*
X0180349Y0118393D02*
X0180320Y0118393D01*
X0179609Y0121500D02*
X0179609Y0121500D01*
X0179699Y0121590D02*
X0179736Y0121590D01*
X0176052Y0121590D02*
X0174000Y0121590D01*
X0174000Y0123188D02*
X0175000Y0123188D01*
X0175000Y0124787D02*
X0174000Y0124787D01*
X0174000Y0126385D02*
X0175000Y0126385D01*
X0175023Y0127984D02*
X0174018Y0127984D01*
X0174295Y0129582D02*
X0173660Y0129582D01*
X0172697Y0131181D02*
X0171902Y0131181D01*
X0172400Y0132779D02*
X0170143Y0132779D01*
X0168385Y0134378D02*
X0172400Y0134378D01*
X0173254Y0135976D02*
X0166626Y0135976D01*
X0164868Y0137575D02*
X0174852Y0137575D01*
X0176800Y0137575D02*
X0176800Y0137575D01*
X0176800Y0135976D02*
X0176800Y0135976D01*
X0176800Y0134378D02*
X0176800Y0134378D01*
X0178748Y0137575D02*
X0196800Y0137575D01*
X0196800Y0139173D02*
X0194886Y0139173D01*
X0196273Y0140772D02*
X0196800Y0140772D01*
X0196800Y0135976D02*
X0180346Y0135976D01*
X0181200Y0134378D02*
X0196800Y0134378D01*
X0196800Y0132779D02*
X0181200Y0132779D01*
X0180903Y0131181D02*
X0196800Y0131181D01*
X0196800Y0129582D02*
X0179305Y0129582D01*
X0171800Y0128300D02*
X0171800Y0084784D01*
X0174000Y0086423D02*
X0175000Y0086423D01*
X0175000Y0084824D02*
X0174790Y0084824D01*
X0175060Y0088021D02*
X0174000Y0088021D01*
X0169600Y0088021D02*
X0166696Y0088021D01*
X0168294Y0086423D02*
X0169600Y0086423D01*
X0168600Y0086117D02*
X0164617Y0090100D01*
X0162000Y0090100D01*
X0162000Y0083500D01*
X0168600Y0083500D01*
X0168600Y0086117D01*
X0168600Y0084824D02*
X0169600Y0084824D01*
X0168614Y0083226D02*
X0162000Y0083226D01*
X0162000Y0084824D02*
X0161600Y0084824D01*
X0161600Y0086423D02*
X0162000Y0086423D01*
X0162000Y0088021D02*
X0161600Y0088021D01*
X0161600Y0089620D02*
X0162000Y0089620D01*
X0165097Y0089620D02*
X0169600Y0089620D01*
X0169600Y0091218D02*
X0122139Y0091218D01*
X0123183Y0089620D02*
X0140333Y0089620D01*
X0143267Y0089620D02*
X0158503Y0089620D01*
X0156904Y0088021D02*
X0146130Y0088021D01*
X0147434Y0086423D02*
X0155306Y0086423D01*
X0155000Y0084824D02*
X0148096Y0084824D01*
X0137470Y0088021D02*
X0123400Y0088021D01*
X0122952Y0086423D02*
X0136166Y0086423D01*
X0135504Y0084824D02*
X0121461Y0084824D01*
X0116800Y0088300D02*
X0096800Y0108300D01*
X0096800Y0173300D01*
X0093897Y0175939D02*
X0069703Y0175939D01*
X0069981Y0174341D02*
X0093619Y0174341D01*
X0093619Y0172742D02*
X0069981Y0172742D01*
X0069981Y0171144D02*
X0093619Y0171144D01*
X0094600Y0169545D02*
X0056156Y0169545D01*
X0054558Y0167947D02*
X0094600Y0167947D01*
X0094600Y0166348D02*
X0054000Y0166348D01*
X0054000Y0164750D02*
X0094600Y0164750D01*
X0094600Y0163151D02*
X0064394Y0163151D01*
X0064683Y0163004D02*
X0063911Y0163397D01*
X0063088Y0163665D01*
X0062233Y0163800D01*
X0062000Y0163800D01*
X0062000Y0158500D01*
X0067300Y0158500D01*
X0067300Y0158733D01*
X0067165Y0159588D01*
X0066897Y0160411D01*
X0066504Y0161183D01*
X0065995Y0161883D01*
X0065383Y0162495D01*
X0064683Y0163004D01*
X0066235Y0161553D02*
X0081796Y0161553D01*
X0081934Y0161691D02*
X0080809Y0160566D01*
X0080200Y0159096D01*
X0080200Y0157504D01*
X0080809Y0156034D01*
X0081934Y0154909D01*
X0083404Y0154300D01*
X0090196Y0154300D01*
X0091666Y0154909D01*
X0092791Y0156034D01*
X0093400Y0157504D01*
X0093400Y0159096D01*
X0092791Y0160566D01*
X0091666Y0161691D01*
X0090196Y0162300D01*
X0083404Y0162300D01*
X0081934Y0161691D01*
X0080556Y0159954D02*
X0067046Y0159954D01*
X0067300Y0158100D02*
X0062000Y0158100D01*
X0062000Y0158500D01*
X0061600Y0158500D01*
X0061600Y0163800D01*
X0061367Y0163800D01*
X0060512Y0163665D01*
X0059689Y0163397D01*
X0058917Y0163004D01*
X0058217Y0162495D01*
X0057605Y0161883D01*
X0057096Y0161183D01*
X0056703Y0160411D01*
X0056435Y0159588D01*
X0056300Y0158733D01*
X0056300Y0158500D01*
X0061600Y0158500D01*
X0061600Y0158100D01*
X0056300Y0158100D01*
X0056300Y0157867D01*
X0056435Y0157012D01*
X0056703Y0156189D01*
X0057096Y0155417D01*
X0057605Y0154717D01*
X0058217Y0154105D01*
X0058917Y0153596D01*
X0059689Y0153203D01*
X0060037Y0153090D01*
X0058911Y0152624D01*
X0057476Y0151189D01*
X0056700Y0149314D01*
X0056700Y0147286D01*
X0057476Y0145411D01*
X0058911Y0143976D01*
X0060544Y0143300D01*
X0058911Y0142624D01*
X0057476Y0141189D01*
X0056700Y0139314D01*
X0056700Y0137286D01*
X0057476Y0135411D01*
X0058911Y0133976D01*
X0060786Y0133200D01*
X0062814Y0133200D01*
X0064689Y0133976D01*
X0066124Y0135411D01*
X0066900Y0137286D01*
X0066900Y0139314D01*
X0066124Y0141189D01*
X0064689Y0142624D01*
X0063056Y0143300D01*
X0064689Y0143976D01*
X0066124Y0145411D01*
X0066900Y0147286D01*
X0066900Y0149314D01*
X0066124Y0151189D01*
X0064689Y0152624D01*
X0063563Y0153090D01*
X0063911Y0153203D01*
X0064683Y0153596D01*
X0065383Y0154105D01*
X0065995Y0154717D01*
X0066504Y0155417D01*
X0066897Y0156189D01*
X0067165Y0157012D01*
X0067300Y0157867D01*
X0067300Y0158100D01*
X0067082Y0156757D02*
X0080510Y0156757D01*
X0080200Y0158356D02*
X0062000Y0158356D01*
X0061600Y0158356D02*
X0054000Y0158356D01*
X0054000Y0159954D02*
X0056554Y0159954D01*
X0057365Y0161553D02*
X0054000Y0161553D01*
X0054000Y0163151D02*
X0059206Y0163151D01*
X0061600Y0163151D02*
X0062000Y0163151D01*
X0062000Y0161553D02*
X0061600Y0161553D01*
X0061600Y0159954D02*
X0062000Y0159954D01*
X0066316Y0155159D02*
X0081685Y0155159D01*
X0082587Y0151962D02*
X0065351Y0151962D01*
X0064612Y0153560D02*
X0094600Y0153560D01*
X0094600Y0151962D02*
X0091013Y0151962D01*
X0091666Y0151691D02*
X0090196Y0152300D01*
X0083404Y0152300D01*
X0081934Y0151691D01*
X0080809Y0150566D01*
X0080200Y0149096D01*
X0080200Y0147504D01*
X0080809Y0146034D01*
X0081934Y0144909D01*
X0083404Y0144300D01*
X0090196Y0144300D01*
X0091666Y0144909D01*
X0092791Y0146034D01*
X0093400Y0147504D01*
X0093400Y0149096D01*
X0092791Y0150566D01*
X0091666Y0151691D01*
X0092875Y0150363D02*
X0094600Y0150363D01*
X0094600Y0148765D02*
X0093400Y0148765D01*
X0093260Y0147166D02*
X0094600Y0147166D01*
X0094600Y0145568D02*
X0092324Y0145568D01*
X0094600Y0143969D02*
X0064671Y0143969D01*
X0064942Y0142370D02*
X0094600Y0142370D01*
X0094600Y0140772D02*
X0092585Y0140772D01*
X0092791Y0140566D02*
X0091666Y0141691D01*
X0090196Y0142300D01*
X0083404Y0142300D01*
X0081934Y0141691D01*
X0080809Y0140566D01*
X0080200Y0139096D01*
X0080200Y0137504D01*
X0080809Y0136034D01*
X0081934Y0134909D01*
X0083404Y0134300D01*
X0090196Y0134300D01*
X0091666Y0134909D01*
X0092791Y0136034D01*
X0093400Y0137504D01*
X0093400Y0139096D01*
X0092791Y0140566D01*
X0093368Y0139173D02*
X0094600Y0139173D01*
X0094600Y0137575D02*
X0093400Y0137575D01*
X0092733Y0135976D02*
X0094600Y0135976D01*
X0094600Y0134378D02*
X0090384Y0134378D01*
X0092176Y0131181D02*
X0094600Y0131181D01*
X0094600Y0132779D02*
X0050843Y0132779D01*
X0050841Y0131636D02*
X0050846Y0134950D01*
X0048507Y0137297D01*
X0045194Y0137303D01*
X0042847Y0134964D01*
X0042841Y0131650D01*
X0045180Y0129303D01*
X0048493Y0129297D01*
X0050841Y0131636D01*
X0050384Y0131181D02*
X0081424Y0131181D01*
X0080402Y0129582D02*
X0048780Y0129582D01*
X0044901Y0129582D02*
X0029000Y0129582D01*
X0029000Y0131181D02*
X0043308Y0131181D01*
X0042843Y0132779D02*
X0029000Y0132779D01*
X0029000Y0134378D02*
X0042846Y0134378D01*
X0043863Y0135976D02*
X0029000Y0135976D01*
X0029000Y0137575D02*
X0056700Y0137575D01*
X0056700Y0139173D02*
X0040232Y0139173D01*
X0041079Y0140772D02*
X0057304Y0140772D01*
X0058658Y0142370D02*
X0041250Y0142370D01*
X0041254Y0142001D02*
X0036879Y0142001D01*
X0036879Y0142001D01*
X0041254Y0142001D01*
X0040786Y0143969D02*
X0058929Y0143969D01*
X0057412Y0145568D02*
X0039767Y0145568D01*
X0041800Y0148300D02*
X0036879Y0148300D01*
X0039862Y0151962D02*
X0042350Y0151962D01*
X0040751Y0153560D02*
X0043949Y0153560D01*
X0045547Y0155159D02*
X0041770Y0155159D01*
X0043368Y0156757D02*
X0047146Y0156757D01*
X0048744Y0158356D02*
X0044000Y0158356D01*
X0044000Y0159954D02*
X0049600Y0159954D01*
X0049600Y0161553D02*
X0044000Y0161553D01*
X0044000Y0163151D02*
X0049600Y0163151D01*
X0049600Y0164750D02*
X0044000Y0164750D01*
X0044000Y0166348D02*
X0049600Y0166348D01*
X0049600Y0167947D02*
X0044000Y0167947D01*
X0043666Y0169545D02*
X0049934Y0169545D01*
X0051800Y0168300D02*
X0056800Y0173300D01*
X0066800Y0173300D01*
X0063897Y0175939D02*
X0049981Y0175939D01*
X0049981Y0180335D01*
X0050618Y0180128D01*
X0051403Y0180004D01*
X0051517Y0180004D01*
X0051517Y0188017D01*
X0046752Y0188017D01*
X0046752Y0184655D01*
X0046876Y0183870D01*
X0047122Y0183114D01*
X0047483Y0182406D01*
X0047950Y0181763D01*
X0048232Y0181481D01*
X0046730Y0181481D01*
X0045756Y0182456D01*
X0046448Y0184127D01*
X0046448Y0192473D01*
X0045740Y0194181D01*
X0044433Y0195488D01*
X0042725Y0196196D01*
X0040875Y0196196D01*
X0039167Y0195488D01*
X0037860Y0194181D01*
X0037152Y0192473D01*
X0037152Y0184127D01*
X0037860Y0182419D01*
X0039167Y0181112D01*
X0040875Y0180404D01*
X0041585Y0180404D01*
X0043619Y0178370D01*
X0043619Y0175939D01*
X0044439Y0175119D01*
X0049161Y0175119D01*
X0049981Y0175939D01*
X0049981Y0177538D02*
X0099451Y0177538D01*
X0099703Y0175939D02*
X0101049Y0175939D01*
X0099981Y0174341D02*
X0102648Y0174341D01*
X0104247Y0172742D02*
X0099981Y0172742D01*
X0104498Y0171144D02*
X0105845Y0171144D01*
X0104981Y0169545D02*
X0107444Y0169545D01*
X0109042Y0167947D02*
X0104981Y0167947D01*
X0104981Y0166348D02*
X0110641Y0166348D01*
X0112239Y0164750D02*
X0104000Y0164750D01*
X0104000Y0163151D02*
X0113838Y0163151D01*
X0113404Y0162300D02*
X0111934Y0161691D01*
X0110809Y0160566D01*
X0110200Y0159096D01*
X0110200Y0157504D01*
X0110809Y0156034D01*
X0111934Y0154909D01*
X0113404Y0154300D01*
X0117689Y0154300D01*
X0119689Y0152300D01*
X0113404Y0152300D01*
X0111934Y0151691D01*
X0110809Y0150566D01*
X0110200Y0149096D01*
X0110200Y0147504D01*
X0110809Y0146034D01*
X0111934Y0144909D01*
X0113404Y0144300D01*
X0120196Y0144300D01*
X0121666Y0144909D01*
X0122791Y0146034D01*
X0123400Y0147504D01*
X0123400Y0148589D01*
X0137800Y0134189D01*
X0137800Y0131643D01*
X0139600Y0129843D01*
X0139600Y0129211D01*
X0130889Y0120500D01*
X0129600Y0119211D01*
X0129600Y0111757D01*
X0127800Y0109957D01*
X0127800Y0106643D01*
X0130143Y0104300D01*
X0133457Y0104300D01*
X0135800Y0106643D01*
X0135800Y0109957D01*
X0134000Y0111757D01*
X0134000Y0117389D01*
X0144000Y0127389D01*
X0144000Y0129843D01*
X0145800Y0131643D01*
X0145800Y0134957D01*
X0143457Y0137300D01*
X0140911Y0137300D01*
X0122484Y0155727D01*
X0122791Y0156034D01*
X0123400Y0157504D01*
X0123400Y0159096D01*
X0122791Y0160566D01*
X0121666Y0161691D01*
X0120196Y0162300D01*
X0119000Y0162300D01*
X0119000Y0164211D01*
X0117711Y0165500D01*
X0097711Y0185500D01*
X0095257Y0185500D01*
X0093457Y0187300D01*
X0090143Y0187300D01*
X0087800Y0184957D01*
X0087800Y0181643D01*
X0090143Y0179300D01*
X0093457Y0179300D01*
X0095257Y0181100D01*
X0095889Y0181100D01*
X0114600Y0162389D01*
X0114600Y0162300D01*
X0113404Y0162300D01*
X0111796Y0161553D02*
X0104000Y0161553D01*
X0104000Y0159954D02*
X0110556Y0159954D01*
X0110200Y0158356D02*
X0104000Y0158356D01*
X0104000Y0156757D02*
X0110510Y0156757D01*
X0111685Y0155159D02*
X0104000Y0155159D01*
X0104000Y0153560D02*
X0118429Y0153560D01*
X0123053Y0155159D02*
X0138985Y0155159D01*
X0137227Y0156757D02*
X0123090Y0156757D01*
X0123400Y0158356D02*
X0135468Y0158356D01*
X0133710Y0159954D02*
X0123044Y0159954D01*
X0121804Y0161553D02*
X0131952Y0161553D01*
X0130193Y0163151D02*
X0119000Y0163151D01*
X0118462Y0164750D02*
X0128435Y0164750D01*
X0126676Y0166348D02*
X0116863Y0166348D01*
X0115265Y0167947D02*
X0124918Y0167947D01*
X0123160Y0169545D02*
X0113666Y0169545D01*
X0112068Y0171144D02*
X0121401Y0171144D01*
X0119643Y0172742D02*
X0110469Y0172742D01*
X0108871Y0174341D02*
X0115102Y0174341D01*
X0113504Y0175939D02*
X0107272Y0175939D01*
X0105674Y0177538D02*
X0112800Y0177538D01*
X0112800Y0179136D02*
X0104075Y0179136D01*
X0102477Y0180735D02*
X0113578Y0180735D01*
X0114977Y0183900D02*
X0112400Y0186477D01*
X0112400Y0188300D01*
X0116800Y0188300D01*
X0116800Y0188300D01*
X0116800Y0192700D01*
X0118623Y0192700D01*
X0121200Y0190123D01*
X0121200Y0188300D01*
X0116800Y0188300D01*
X0116800Y0188300D01*
X0116800Y0188300D01*
X0116800Y0192700D01*
X0114977Y0192700D01*
X0112400Y0190123D01*
X0112400Y0188300D01*
X0116800Y0188300D01*
X0121200Y0188300D01*
X0121200Y0186477D01*
X0118623Y0183900D01*
X0116800Y0183900D01*
X0116800Y0188300D01*
X0116800Y0188300D01*
X0116800Y0183900D01*
X0114977Y0183900D01*
X0114946Y0183932D02*
X0099279Y0183932D01*
X0100878Y0182333D02*
X0152800Y0182333D01*
X0152800Y0181643D02*
X0155143Y0179300D01*
X0158457Y0179300D01*
X0160800Y0181643D01*
X0160800Y0184957D01*
X0158457Y0187300D01*
X0155143Y0187300D01*
X0152800Y0184957D01*
X0152800Y0181643D01*
X0153708Y0180735D02*
X0120022Y0180735D01*
X0120800Y0179136D02*
X0188751Y0179136D01*
X0188276Y0177538D02*
X0143785Y0177538D01*
X0143623Y0177700D02*
X0146200Y0175123D01*
X0146200Y0173300D01*
X0141800Y0173300D01*
X0141800Y0173300D01*
X0141800Y0177700D01*
X0143623Y0177700D01*
X0141800Y0177700D02*
X0139977Y0177700D01*
X0137400Y0175123D01*
X0137400Y0173300D01*
X0141800Y0173300D01*
X0141800Y0173300D01*
X0141800Y0173300D01*
X0141800Y0177700D01*
X0141800Y0177538D02*
X0141800Y0177538D01*
X0141800Y0175939D02*
X0141800Y0175939D01*
X0141800Y0174341D02*
X0141800Y0174341D01*
X0141800Y0173300D02*
X0137400Y0173300D01*
X0137400Y0171477D01*
X0139977Y0168900D01*
X0141800Y0168900D01*
X0143623Y0168900D01*
X0146200Y0171477D01*
X0146200Y0173300D01*
X0141800Y0173300D01*
X0141800Y0168900D01*
X0141800Y0173300D01*
X0141800Y0173300D01*
X0141800Y0172742D02*
X0141800Y0172742D01*
X0141800Y0171144D02*
X0141800Y0171144D01*
X0141800Y0169545D02*
X0141800Y0169545D01*
X0144268Y0169545D02*
X0187777Y0169545D01*
X0186726Y0171144D02*
X0145866Y0171144D01*
X0146200Y0172742D02*
X0186320Y0172742D01*
X0186396Y0174341D02*
X0146200Y0174341D01*
X0145383Y0175939D02*
X0186972Y0175939D01*
X0187342Y0180735D02*
X0179892Y0180735D01*
X0180800Y0181643D02*
X0178457Y0179300D01*
X0175143Y0179300D01*
X0172800Y0181643D01*
X0172800Y0184957D01*
X0175143Y0187300D01*
X0178457Y0187300D01*
X0180800Y0184957D01*
X0180800Y0181643D01*
X0180800Y0182333D02*
X0186700Y0182333D01*
X0186700Y0183932D02*
X0180800Y0183932D01*
X0180227Y0185530D02*
X0187204Y0185530D01*
X0188416Y0187129D02*
X0178628Y0187129D01*
X0174972Y0187129D02*
X0168628Y0187129D01*
X0168457Y0187300D02*
X0165143Y0187300D01*
X0162800Y0184957D01*
X0162800Y0181643D01*
X0165143Y0179300D01*
X0168457Y0179300D01*
X0170800Y0181643D01*
X0170800Y0184957D01*
X0168457Y0187300D01*
X0170227Y0185530D02*
X0173373Y0185530D01*
X0172800Y0183932D02*
X0170800Y0183932D01*
X0170800Y0182333D02*
X0172800Y0182333D01*
X0173708Y0180735D02*
X0169892Y0180735D01*
X0163708Y0180735D02*
X0159892Y0180735D01*
X0160800Y0182333D02*
X0162800Y0182333D01*
X0162800Y0183932D02*
X0160800Y0183932D01*
X0160227Y0185530D02*
X0163373Y0185530D01*
X0164972Y0187129D02*
X0158628Y0187129D01*
X0154972Y0187129D02*
X0121200Y0187129D01*
X0121200Y0188727D02*
X0189512Y0188727D01*
X0187562Y0190326D02*
X0120997Y0190326D01*
X0119398Y0191924D02*
X0186850Y0191924D01*
X0186700Y0193523D02*
X0089734Y0193523D01*
X0090800Y0192457D02*
X0088457Y0194800D01*
X0085143Y0194800D01*
X0082800Y0192457D01*
X0082800Y0189143D01*
X0085143Y0186800D01*
X0088457Y0186800D01*
X0090800Y0189143D01*
X0090800Y0192457D01*
X0090800Y0191924D02*
X0114202Y0191924D01*
X0112603Y0190326D02*
X0090800Y0190326D01*
X0090384Y0188727D02*
X0112400Y0188727D01*
X0112400Y0187129D02*
X0093628Y0187129D01*
X0095227Y0185530D02*
X0113347Y0185530D01*
X0116800Y0185530D02*
X0116800Y0185530D01*
X0116800Y0183932D02*
X0116800Y0183932D01*
X0118654Y0183932D02*
X0152800Y0183932D01*
X0153373Y0185530D02*
X0120253Y0185530D01*
X0116800Y0187129D02*
X0116800Y0187129D01*
X0116800Y0188727D02*
X0116800Y0188727D01*
X0116800Y0190326D02*
X0116800Y0190326D01*
X0116800Y0191924D02*
X0116800Y0191924D01*
X0116800Y0178300D02*
X0171800Y0128300D01*
X0169600Y0126385D02*
X0142997Y0126385D01*
X0144000Y0127984D02*
X0168877Y0127984D01*
X0167119Y0129582D02*
X0154305Y0129582D01*
X0153623Y0128900D02*
X0156200Y0131477D01*
X0156200Y0133300D01*
X0156200Y0135123D01*
X0153623Y0137700D01*
X0151800Y0137700D01*
X0151800Y0133300D01*
X0156200Y0133300D01*
X0151800Y0133300D01*
X0151800Y0133300D01*
X0151800Y0133300D01*
X0151800Y0128900D01*
X0153623Y0128900D01*
X0151800Y0128900D02*
X0151800Y0133300D01*
X0151800Y0133300D01*
X0151800Y0133300D01*
X0147400Y0133300D01*
X0147400Y0135123D01*
X0149977Y0137700D01*
X0151800Y0137700D01*
X0151800Y0133300D01*
X0147400Y0133300D01*
X0147400Y0131477D01*
X0149977Y0128900D01*
X0151800Y0128900D01*
X0151800Y0129582D02*
X0151800Y0129582D01*
X0151800Y0131181D02*
X0151800Y0131181D01*
X0151800Y0132779D02*
X0151800Y0132779D01*
X0151800Y0134378D02*
X0151800Y0134378D01*
X0151800Y0135976D02*
X0151800Y0135976D01*
X0151800Y0137575D02*
X0151800Y0137575D01*
X0153748Y0137575D02*
X0158327Y0137575D01*
X0156569Y0139173D02*
X0139038Y0139173D01*
X0140636Y0137575D02*
X0149852Y0137575D01*
X0148254Y0135976D02*
X0144780Y0135976D01*
X0145800Y0134378D02*
X0147400Y0134378D01*
X0147400Y0132779D02*
X0145800Y0132779D01*
X0145338Y0131181D02*
X0147697Y0131181D01*
X0149295Y0129582D02*
X0144000Y0129582D01*
X0141800Y0128300D02*
X0131800Y0118300D01*
X0131800Y0108300D01*
X0134762Y0105605D02*
X0138273Y0105605D01*
X0137400Y0106477D02*
X0137400Y0108300D01*
X0141800Y0108300D01*
X0146200Y0108300D01*
X0146200Y0110123D01*
X0143623Y0112700D01*
X0141800Y0112700D01*
X0141800Y0108300D01*
X0141800Y0108300D01*
X0141800Y0108300D01*
X0146200Y0108300D01*
X0146200Y0106477D01*
X0143623Y0103900D01*
X0141800Y0103900D01*
X0141800Y0108300D01*
X0141800Y0108300D01*
X0141800Y0108300D01*
X0141800Y0112700D01*
X0139977Y0112700D01*
X0137400Y0110123D01*
X0137400Y0108300D01*
X0141800Y0108300D01*
X0141800Y0103900D01*
X0139977Y0103900D01*
X0137400Y0106477D01*
X0137400Y0107203D02*
X0135800Y0107203D01*
X0135800Y0108802D02*
X0137400Y0108802D01*
X0137678Y0110400D02*
X0135357Y0110400D01*
X0134000Y0111999D02*
X0139276Y0111999D01*
X0141800Y0111999D02*
X0141800Y0111999D01*
X0141800Y0110400D02*
X0141800Y0110400D01*
X0141800Y0108802D02*
X0141800Y0108802D01*
X0141800Y0107203D02*
X0141800Y0107203D01*
X0141800Y0105605D02*
X0141800Y0105605D01*
X0141800Y0104006D02*
X0141800Y0104006D01*
X0143729Y0104006D02*
X0169600Y0104006D01*
X0169600Y0102408D02*
X0115804Y0102408D01*
X0114205Y0104006D02*
X0139871Y0104006D01*
X0145327Y0105605D02*
X0169600Y0105605D01*
X0169600Y0107203D02*
X0146200Y0107203D01*
X0146200Y0108802D02*
X0169600Y0108802D01*
X0169600Y0110400D02*
X0145922Y0110400D01*
X0144324Y0111999D02*
X0169600Y0111999D01*
X0169600Y0113597D02*
X0134000Y0113597D01*
X0134000Y0115196D02*
X0169600Y0115196D01*
X0169600Y0116794D02*
X0134000Y0116794D01*
X0135004Y0118393D02*
X0169600Y0118393D01*
X0169600Y0119991D02*
X0136603Y0119991D01*
X0138201Y0121590D02*
X0169600Y0121590D01*
X0169600Y0123188D02*
X0139800Y0123188D01*
X0141398Y0124787D02*
X0169600Y0124787D01*
X0165360Y0131181D02*
X0155903Y0131181D01*
X0156200Y0132779D02*
X0163602Y0132779D01*
X0161844Y0134378D02*
X0156200Y0134378D01*
X0155346Y0135976D02*
X0160085Y0135976D01*
X0163110Y0139173D02*
X0188714Y0139173D01*
X0187327Y0140772D02*
X0161351Y0140772D01*
X0159593Y0142370D02*
X0186700Y0142370D01*
X0186700Y0143969D02*
X0157835Y0143969D01*
X0156076Y0145568D02*
X0187219Y0145568D01*
X0188454Y0147166D02*
X0154318Y0147166D01*
X0152560Y0148765D02*
X0189423Y0148765D01*
X0187524Y0150363D02*
X0150801Y0150363D01*
X0149043Y0151962D02*
X0186834Y0151962D01*
X0186700Y0153560D02*
X0147284Y0153560D01*
X0145526Y0155159D02*
X0187050Y0155159D01*
X0188045Y0156757D02*
X0143768Y0156757D01*
X0142009Y0158356D02*
X0190410Y0158356D01*
X0187933Y0159954D02*
X0144111Y0159954D01*
X0145709Y0161553D02*
X0187004Y0161553D01*
X0186700Y0163151D02*
X0145800Y0163151D01*
X0145800Y0164750D02*
X0186880Y0164750D01*
X0187636Y0166348D02*
X0144409Y0166348D01*
X0139191Y0166348D02*
X0133218Y0166348D01*
X0134976Y0164750D02*
X0137800Y0164750D01*
X0137800Y0163151D02*
X0136734Y0163151D01*
X0139332Y0169545D02*
X0129701Y0169545D01*
X0131459Y0167947D02*
X0189691Y0167947D01*
X0187034Y0195121D02*
X0055366Y0195121D01*
X0055089Y0195398D02*
X0054446Y0195865D01*
X0053738Y0196226D01*
X0052982Y0196472D01*
X0052197Y0196596D01*
X0052083Y0196596D01*
X0052083Y0188583D01*
X0051517Y0188583D01*
X0051517Y0196596D01*
X0051403Y0196596D01*
X0050618Y0196472D01*
X0049862Y0196226D01*
X0049154Y0195865D01*
X0048511Y0195398D01*
X0047950Y0194837D01*
X0047483Y0194194D01*
X0047122Y0193486D01*
X0046876Y0192730D01*
X0046752Y0191945D01*
X0046752Y0188583D01*
X0051517Y0188583D01*
X0051517Y0188017D01*
X0052083Y0188017D01*
X0052083Y0188583D01*
X0056848Y0188583D01*
X0056848Y0191945D01*
X0056724Y0192730D01*
X0056478Y0193486D01*
X0056117Y0194194D01*
X0055650Y0194837D01*
X0055089Y0195398D01*
X0056459Y0193523D02*
X0083866Y0193523D01*
X0082800Y0191924D02*
X0064822Y0191924D01*
X0064462Y0192284D02*
X0062735Y0193000D01*
X0060865Y0193000D01*
X0059138Y0192284D01*
X0057816Y0190962D01*
X0057100Y0189235D01*
X0057100Y0187365D01*
X0057816Y0185638D01*
X0059138Y0184316D01*
X0060865Y0183600D01*
X0062735Y0183600D01*
X0064462Y0184316D01*
X0065784Y0185638D01*
X0066500Y0187365D01*
X0066500Y0189235D01*
X0065784Y0190962D01*
X0064462Y0192284D01*
X0066048Y0190326D02*
X0082800Y0190326D01*
X0083216Y0188727D02*
X0066500Y0188727D01*
X0066402Y0187129D02*
X0079406Y0187129D01*
X0079977Y0187700D02*
X0077400Y0185123D01*
X0077400Y0183300D01*
X0081800Y0183300D01*
X0086200Y0183300D01*
X0086200Y0185123D01*
X0083623Y0187700D01*
X0081800Y0187700D01*
X0081800Y0183300D01*
X0081800Y0183300D01*
X0081800Y0183300D01*
X0086200Y0183300D01*
X0086200Y0181477D01*
X0083623Y0178900D01*
X0081800Y0178900D01*
X0081800Y0183300D01*
X0081800Y0183300D01*
X0081800Y0183300D01*
X0081800Y0187700D01*
X0079977Y0187700D01*
X0081800Y0187129D02*
X0081800Y0187129D01*
X0081800Y0185530D02*
X0081800Y0185530D01*
X0081800Y0183932D02*
X0081800Y0183932D01*
X0081800Y0183300D02*
X0077400Y0183300D01*
X0077400Y0181477D01*
X0079977Y0178900D01*
X0081800Y0178900D01*
X0081800Y0183300D01*
X0081800Y0182333D02*
X0081800Y0182333D01*
X0081800Y0180735D02*
X0081800Y0180735D01*
X0081800Y0179136D02*
X0081800Y0179136D01*
X0079741Y0179136D02*
X0049981Y0179136D01*
X0051517Y0180735D02*
X0052083Y0180735D01*
X0052083Y0180004D02*
X0052197Y0180004D01*
X0052982Y0180128D01*
X0053738Y0180374D01*
X0054446Y0180734D01*
X0055089Y0181202D01*
X0055650Y0181763D01*
X0056117Y0182406D01*
X0056478Y0183114D01*
X0056724Y0183870D01*
X0056848Y0184655D01*
X0056848Y0188017D01*
X0052083Y0188017D01*
X0052083Y0180004D01*
X0052083Y0182333D02*
X0051517Y0182333D01*
X0051517Y0183932D02*
X0052083Y0183932D01*
X0052083Y0185530D02*
X0051517Y0185530D01*
X0051517Y0187129D02*
X0052083Y0187129D01*
X0052083Y0188727D02*
X0051517Y0188727D01*
X0051517Y0190326D02*
X0052083Y0190326D01*
X0052083Y0191924D02*
X0051517Y0191924D01*
X0051517Y0193523D02*
X0052083Y0193523D01*
X0052083Y0195121D02*
X0051517Y0195121D01*
X0048234Y0195121D02*
X0044800Y0195121D01*
X0046013Y0193523D02*
X0047141Y0193523D01*
X0046752Y0191924D02*
X0046448Y0191924D01*
X0046448Y0190326D02*
X0046752Y0190326D01*
X0046752Y0188727D02*
X0046448Y0188727D01*
X0046448Y0187129D02*
X0046752Y0187129D01*
X0046752Y0185530D02*
X0046448Y0185530D01*
X0046367Y0183932D02*
X0046866Y0183932D01*
X0047536Y0182333D02*
X0045878Y0182333D01*
X0042852Y0179136D02*
X0034075Y0179136D01*
X0034000Y0180735D02*
X0040077Y0180735D01*
X0037945Y0182333D02*
X0035655Y0182333D01*
X0036367Y0183932D02*
X0037233Y0183932D01*
X0037152Y0185530D02*
X0036448Y0185530D01*
X0036448Y0187129D02*
X0037152Y0187129D01*
X0037152Y0188727D02*
X0036448Y0188727D01*
X0036448Y0190326D02*
X0037152Y0190326D01*
X0037152Y0191924D02*
X0036448Y0191924D01*
X0036013Y0193523D02*
X0037587Y0193523D01*
X0038800Y0195121D02*
X0034800Y0195121D01*
X0028800Y0195121D02*
X0003600Y0195121D01*
X0003600Y0193523D02*
X0027587Y0193523D01*
X0027152Y0191924D02*
X0024822Y0191924D01*
X0024462Y0192284D02*
X0022735Y0193000D01*
X0020865Y0193000D01*
X0019138Y0192284D01*
X0017816Y0190962D01*
X0017100Y0189235D01*
X0017100Y0187365D01*
X0017816Y0185638D01*
X0019138Y0184316D01*
X0020865Y0183600D01*
X0022735Y0183600D01*
X0024462Y0184316D01*
X0025784Y0185638D01*
X0026500Y0187365D01*
X0026500Y0189235D01*
X0025784Y0190962D01*
X0024462Y0192284D01*
X0026048Y0190326D02*
X0027152Y0190326D01*
X0027152Y0188727D02*
X0026500Y0188727D01*
X0026402Y0187129D02*
X0027152Y0187129D01*
X0027152Y0185530D02*
X0025677Y0185530D01*
X0027233Y0183932D02*
X0023536Y0183932D01*
X0020064Y0183932D02*
X0003600Y0183932D01*
X0003600Y0185530D02*
X0017923Y0185530D01*
X0017198Y0187129D02*
X0003600Y0187129D01*
X0003600Y0188727D02*
X0017100Y0188727D01*
X0017552Y0190326D02*
X0003600Y0190326D01*
X0003600Y0191924D02*
X0018778Y0191924D01*
X0027945Y0182333D02*
X0003600Y0182333D01*
X0003600Y0180735D02*
X0029600Y0180735D01*
X0029600Y0179136D02*
X0003600Y0179136D01*
X0003600Y0177538D02*
X0029600Y0177538D01*
X0031049Y0175939D02*
X0003600Y0175939D01*
X0003600Y0174341D02*
X0032648Y0174341D01*
X0034247Y0172742D02*
X0003600Y0172742D01*
X0003600Y0171144D02*
X0024102Y0171144D01*
X0029498Y0171144D02*
X0035845Y0171144D01*
X0037444Y0169545D02*
X0029981Y0169545D01*
X0037272Y0175939D02*
X0043619Y0175939D01*
X0043619Y0177538D02*
X0035674Y0177538D01*
X0031800Y0178300D02*
X0031800Y0188300D01*
X0031800Y0178300D02*
X0041800Y0168300D01*
X0041800Y0158300D01*
X0038099Y0154599D01*
X0036879Y0154599D01*
X0038197Y0158356D02*
X0038744Y0158356D01*
X0032154Y0152946D02*
X0032154Y0151450D01*
X0032154Y0145150D02*
X0026800Y0144796D01*
X0026800Y0083300D01*
X0056800Y0053300D01*
X0039748Y0067240D02*
X0033529Y0067240D01*
X0029699Y0068839D02*
X0038150Y0068839D01*
X0036551Y0070437D02*
X0011134Y0070437D01*
X0011797Y0072036D02*
X0015606Y0072036D01*
X0016142Y0071500D02*
X0015000Y0072642D01*
X0015000Y0074494D01*
X0015000Y0076726D01*
X0016234Y0077961D01*
X0017377Y0079103D01*
X0018992Y0079103D01*
X0020226Y0077869D01*
X0020335Y0077761D01*
X0020535Y0077961D01*
X0020535Y0077961D01*
X0021655Y0079081D01*
X0021677Y0079103D01*
X0023292Y0079103D01*
X0024418Y0077977D01*
X0024435Y0077961D01*
X0024435Y0076726D01*
X0025052Y0076109D01*
X0025052Y0074494D01*
X0024435Y0073877D01*
X0024435Y0072642D01*
X0023292Y0071500D01*
X0021677Y0071500D01*
X0020952Y0072225D01*
X0020226Y0071500D01*
X0018611Y0071500D01*
X0018184Y0071927D01*
X0017758Y0071500D01*
X0016142Y0071500D01*
X0015000Y0073634D02*
X0011900Y0073634D01*
X0011520Y0075233D02*
X0015000Y0075233D01*
X0015105Y0076832D02*
X0010481Y0076832D01*
X0008370Y0078430D02*
X0016704Y0078430D01*
X0019665Y0078430D02*
X0021004Y0078430D01*
X0023966Y0078430D02*
X0028559Y0078430D01*
X0030157Y0076832D02*
X0024435Y0076832D01*
X0025052Y0075233D02*
X0031756Y0075233D01*
X0033354Y0073634D02*
X0024435Y0073634D01*
X0023828Y0072036D02*
X0034953Y0072036D01*
X0027555Y0068839D02*
X0027230Y0068839D01*
X0022020Y0068839D02*
X0019873Y0068839D01*
X0020762Y0072036D02*
X0021141Y0072036D01*
X0016495Y0068839D02*
X0009357Y0068839D01*
X0010072Y0067240D02*
X0015000Y0067240D01*
X0015086Y0065642D02*
X0011350Y0065642D01*
X0011900Y0064043D02*
X0015000Y0064043D01*
X0015815Y0062445D02*
X0011900Y0062445D01*
X0011304Y0060846D02*
X0028607Y0060846D01*
X0025134Y0061500D02*
X0025134Y0061500D01*
X0025134Y0061500D01*
X0029775Y0049657D02*
X0010935Y0049657D01*
X0011759Y0049103D02*
X0011759Y0049103D01*
X0010715Y0048058D02*
X0008466Y0048058D01*
X0007000Y0048058D02*
X0006600Y0048058D01*
X0005134Y0048058D02*
X0003600Y0048058D01*
X0003600Y0046460D02*
X0010000Y0046460D01*
X0010000Y0044861D02*
X0003600Y0044861D01*
X0003600Y0043263D02*
X0010000Y0043263D01*
X0011595Y0041664D02*
X0003600Y0041664D01*
X0003600Y0040066D02*
X0032909Y0040066D01*
X0032800Y0038467D02*
X0003600Y0038467D01*
X0003600Y0036869D02*
X0032800Y0036869D01*
X0034173Y0035270D02*
X0003600Y0035270D01*
X0010617Y0047961D02*
X0010617Y0047961D01*
X0007000Y0049657D02*
X0006600Y0049657D01*
X0006600Y0051255D02*
X0007000Y0051255D01*
X0007000Y0052854D02*
X0006600Y0052854D01*
X0016605Y0041664D02*
X0017088Y0041664D01*
X0010741Y0080029D02*
X0026960Y0080029D01*
X0025362Y0081627D02*
X0023419Y0081627D01*
X0023910Y0082117D02*
X0023910Y0082117D01*
X0020316Y0081627D02*
X0019736Y0081627D01*
X0016015Y0081627D02*
X0011627Y0081627D01*
X0011900Y0083226D02*
X0015000Y0083226D01*
X0015000Y0084824D02*
X0011689Y0084824D01*
X0010890Y0086423D02*
X0015000Y0086423D01*
X0015060Y0088021D02*
X0008729Y0088021D01*
X0010332Y0089620D02*
X0024600Y0089620D01*
X0024600Y0091218D02*
X0011458Y0091218D01*
X0011900Y0092817D02*
X0015000Y0092817D01*
X0015000Y0094415D02*
X0011858Y0094415D01*
X0011196Y0096014D02*
X0015000Y0096014D01*
X0015000Y0097612D02*
X0009700Y0097612D01*
X0009923Y0099211D02*
X0024600Y0099211D01*
X0024600Y0100809D02*
X0011288Y0100809D01*
X0011900Y0102408D02*
X0015235Y0102408D01*
X0015000Y0104006D02*
X0011900Y0104006D01*
X0011366Y0105605D02*
X0015000Y0105605D01*
X0015000Y0107203D02*
X0010109Y0107203D01*
X0009267Y0108802D02*
X0015841Y0108802D01*
X0015644Y0111999D02*
X0011781Y0111999D01*
X0011900Y0113597D02*
X0015000Y0113597D01*
X0015000Y0115196D02*
X0011535Y0115196D01*
X0010518Y0116794D02*
X0015068Y0116794D01*
X0016666Y0118393D02*
X0011273Y0118393D01*
X0011900Y0119991D02*
X0024600Y0119991D01*
X0024600Y0118393D02*
X0023386Y0118393D01*
X0023818Y0116794D02*
X0024600Y0116794D01*
X0024600Y0115196D02*
X0024114Y0115196D01*
X0024408Y0111999D02*
X0024600Y0111999D01*
X0024600Y0110400D02*
X0011113Y0110400D01*
X0019911Y0108802D02*
X0020758Y0108802D01*
X0022977Y0108802D02*
X0024600Y0108802D01*
X0024600Y0107203D02*
X0023818Y0107203D01*
X0023818Y0105605D02*
X0024600Y0105605D01*
X0029000Y0104006D02*
X0097983Y0104006D01*
X0099581Y0102408D02*
X0029000Y0102408D01*
X0029000Y0097612D02*
X0058900Y0097612D01*
X0057404Y0096014D02*
X0029000Y0096014D01*
X0029000Y0094415D02*
X0056742Y0094415D01*
X0056700Y0092817D02*
X0029000Y0092817D01*
X0029000Y0091218D02*
X0057142Y0091218D01*
X0058268Y0089620D02*
X0029000Y0089620D01*
X0029000Y0088021D02*
X0058951Y0088021D01*
X0064649Y0088021D02*
X0079800Y0088021D01*
X0079800Y0087954D02*
X0079908Y0087270D01*
X0080122Y0086611D01*
X0080437Y0085994D01*
X0080844Y0085434D01*
X0081334Y0084944D01*
X0081894Y0084537D01*
X0082511Y0084222D01*
X0083170Y0084008D01*
X0083854Y0083900D01*
X0086800Y0083900D01*
X0086800Y0088300D01*
X0086800Y0088300D01*
X0086800Y0088300D01*
X0079800Y0088300D01*
X0079800Y0088646D01*
X0079908Y0089330D01*
X0080122Y0089989D01*
X0080437Y0090606D01*
X0080844Y0091166D01*
X0081334Y0091656D01*
X0081894Y0092063D01*
X0082511Y0092378D01*
X0083170Y0092592D01*
X0083854Y0092700D01*
X0086800Y0092700D01*
X0086800Y0088300D01*
X0079800Y0088300D01*
X0079800Y0087954D01*
X0080218Y0086423D02*
X0066330Y0086423D01*
X0067088Y0084824D02*
X0081498Y0084824D01*
X0081870Y0081627D02*
X0067039Y0081627D01*
X0066222Y0080029D02*
X0080586Y0080029D01*
X0080200Y0078430D02*
X0064357Y0078430D01*
X0065481Y0076832D02*
X0080479Y0076832D01*
X0081610Y0075233D02*
X0066520Y0075233D01*
X0065332Y0089620D02*
X0080002Y0089620D01*
X0080896Y0091218D02*
X0066458Y0091218D01*
X0086800Y0091218D02*
X0086800Y0091218D01*
X0086800Y0089620D02*
X0086800Y0089620D01*
X0086800Y0088021D02*
X0086800Y0088021D01*
X0086800Y0086423D02*
X0086800Y0086423D01*
X0086800Y0084824D02*
X0086800Y0084824D01*
X0092771Y0096014D02*
X0105975Y0096014D01*
X0104377Y0097612D02*
X0093400Y0097612D01*
X0093352Y0099211D02*
X0102778Y0099211D01*
X0101180Y0100809D02*
X0092548Y0100809D01*
X0092362Y0105605D02*
X0096384Y0105605D01*
X0094785Y0107203D02*
X0093275Y0107203D01*
X0093400Y0108802D02*
X0094600Y0108802D01*
X0094600Y0110400D02*
X0092860Y0110400D01*
X0094600Y0111999D02*
X0090923Y0111999D01*
X0081647Y0115196D02*
X0029000Y0115196D01*
X0029000Y0116794D02*
X0080494Y0116794D01*
X0080200Y0118393D02*
X0029000Y0118393D01*
X0029000Y0119991D02*
X0080571Y0119991D01*
X0091371Y0124787D02*
X0094600Y0124787D01*
X0094600Y0126385D02*
X0092936Y0126385D01*
X0093400Y0127984D02*
X0094600Y0127984D01*
X0094600Y0129582D02*
X0093198Y0129582D01*
X0083216Y0134378D02*
X0065090Y0134378D01*
X0066358Y0135976D02*
X0080867Y0135976D01*
X0080200Y0137575D02*
X0066900Y0137575D01*
X0066900Y0139173D02*
X0080232Y0139173D01*
X0081015Y0140772D02*
X0066296Y0140772D01*
X0066188Y0145568D02*
X0081276Y0145568D01*
X0080340Y0147166D02*
X0066850Y0147166D01*
X0066900Y0148765D02*
X0080200Y0148765D01*
X0080725Y0150363D02*
X0066466Y0150363D01*
X0058988Y0153560D02*
X0050171Y0153560D01*
X0048573Y0151962D02*
X0058249Y0151962D01*
X0057134Y0150363D02*
X0046974Y0150363D01*
X0045376Y0148765D02*
X0056700Y0148765D01*
X0056749Y0147166D02*
X0043777Y0147166D01*
X0044000Y0147389D02*
X0044000Y0147389D01*
X0041800Y0148300D02*
X0051800Y0158300D01*
X0051800Y0168300D01*
X0051532Y0171144D02*
X0042068Y0171144D01*
X0040469Y0172742D02*
X0053131Y0172742D01*
X0054729Y0174341D02*
X0038871Y0174341D01*
X0046800Y0178300D02*
X0041800Y0183300D01*
X0041800Y0188300D01*
X0054446Y0180735D02*
X0078143Y0180735D01*
X0077400Y0182333D02*
X0056064Y0182333D01*
X0056734Y0183932D02*
X0060064Y0183932D01*
X0057923Y0185530D02*
X0056848Y0185530D01*
X0056848Y0187129D02*
X0057198Y0187129D01*
X0057100Y0188727D02*
X0056848Y0188727D01*
X0056848Y0190326D02*
X0057552Y0190326D01*
X0056848Y0191924D02*
X0058778Y0191924D01*
X0065677Y0185530D02*
X0077808Y0185530D01*
X0077400Y0183932D02*
X0063536Y0183932D01*
X0083859Y0179136D02*
X0097852Y0179136D01*
X0096254Y0180735D02*
X0094892Y0180735D01*
X0096800Y0183300D02*
X0091800Y0183300D01*
X0088373Y0185530D02*
X0085792Y0185530D01*
X0086200Y0183932D02*
X0087800Y0183932D01*
X0087800Y0182333D02*
X0086200Y0182333D01*
X0085457Y0180735D02*
X0088708Y0180735D01*
X0088786Y0187129D02*
X0089972Y0187129D01*
X0084814Y0187129D02*
X0084194Y0187129D01*
X0096800Y0183300D02*
X0116800Y0163300D01*
X0116800Y0158300D01*
X0141800Y0133300D01*
X0141800Y0128300D01*
X0139600Y0129582D02*
X0123198Y0129582D01*
X0123400Y0129096D02*
X0122791Y0130566D01*
X0121666Y0131691D01*
X0120196Y0132300D01*
X0113404Y0132300D01*
X0111934Y0131691D01*
X0110809Y0130566D01*
X0110200Y0129096D01*
X0110200Y0127504D01*
X0110809Y0126034D01*
X0111934Y0124909D01*
X0113404Y0124300D01*
X0120196Y0124300D01*
X0121666Y0124909D01*
X0122791Y0126034D01*
X0123400Y0127504D01*
X0123400Y0129096D01*
X0123400Y0127984D02*
X0138373Y0127984D01*
X0136774Y0126385D02*
X0122936Y0126385D01*
X0121371Y0124787D02*
X0135176Y0124787D01*
X0133577Y0123188D02*
X0104000Y0123188D01*
X0104000Y0121590D02*
X0111833Y0121590D01*
X0111934Y0121691D02*
X0110809Y0120566D01*
X0110200Y0119096D01*
X0110200Y0117504D01*
X0110809Y0116034D01*
X0111934Y0114909D01*
X0113404Y0114300D01*
X0120196Y0114300D01*
X0121666Y0114909D01*
X0122791Y0116034D01*
X0123400Y0117504D01*
X0123400Y0119096D01*
X0122791Y0120566D01*
X0121666Y0121691D01*
X0120196Y0122300D01*
X0113404Y0122300D01*
X0111934Y0121691D01*
X0110571Y0119991D02*
X0104000Y0119991D01*
X0104000Y0118393D02*
X0110200Y0118393D01*
X0110494Y0116794D02*
X0104000Y0116794D01*
X0104000Y0115196D02*
X0111647Y0115196D01*
X0112677Y0111999D02*
X0106212Y0111999D01*
X0104614Y0113597D02*
X0129600Y0113597D01*
X0129600Y0111999D02*
X0120923Y0111999D01*
X0122860Y0110400D02*
X0128243Y0110400D01*
X0127800Y0108802D02*
X0123400Y0108802D01*
X0123275Y0107203D02*
X0127800Y0107203D01*
X0128838Y0105605D02*
X0122362Y0105605D01*
X0122548Y0100809D02*
X0169600Y0100809D01*
X0169600Y0099211D02*
X0123352Y0099211D01*
X0123400Y0097612D02*
X0169600Y0097612D01*
X0169600Y0096014D02*
X0122771Y0096014D01*
X0120474Y0094415D02*
X0169600Y0094415D01*
X0169600Y0092817D02*
X0115395Y0092817D01*
X0116800Y0098300D02*
X0101800Y0113300D01*
X0101800Y0168300D01*
X0094600Y0161553D02*
X0091804Y0161553D01*
X0093044Y0159954D02*
X0094600Y0159954D01*
X0094600Y0158356D02*
X0093400Y0158356D01*
X0093090Y0156757D02*
X0094600Y0156757D01*
X0094600Y0155159D02*
X0091915Y0155159D01*
X0104000Y0151962D02*
X0112587Y0151962D01*
X0110725Y0150363D02*
X0104000Y0150363D01*
X0104000Y0148765D02*
X0110200Y0148765D01*
X0110340Y0147166D02*
X0104000Y0147166D01*
X0104000Y0145568D02*
X0111276Y0145568D01*
X0112511Y0142378D02*
X0111894Y0142063D01*
X0111334Y0141656D01*
X0110844Y0141166D01*
X0110437Y0140606D01*
X0110122Y0139989D01*
X0109908Y0139330D01*
X0109800Y0138646D01*
X0109800Y0138300D01*
X0116800Y0138300D01*
X0116800Y0138300D01*
X0116800Y0142700D01*
X0119746Y0142700D01*
X0120430Y0142592D01*
X0121089Y0142378D01*
X0121706Y0142063D01*
X0122266Y0141656D01*
X0122756Y0141166D01*
X0123163Y0140606D01*
X0123478Y0139989D01*
X0123692Y0139330D01*
X0123800Y0138646D01*
X0123800Y0138300D01*
X0116800Y0138300D01*
X0116800Y0138300D01*
X0116800Y0133900D01*
X0119746Y0133900D01*
X0120430Y0134008D01*
X0121089Y0134222D01*
X0121706Y0134537D01*
X0122266Y0134944D01*
X0122756Y0135434D01*
X0123163Y0135994D01*
X0123478Y0136611D01*
X0123692Y0137270D01*
X0123800Y0137954D01*
X0123800Y0138300D01*
X0116800Y0138300D01*
X0116800Y0138300D01*
X0116800Y0138300D01*
X0116800Y0142700D01*
X0113854Y0142700D01*
X0113170Y0142592D01*
X0112511Y0142378D01*
X0112497Y0142370D02*
X0104000Y0142370D01*
X0104000Y0140772D02*
X0110557Y0140772D01*
X0109884Y0139173D02*
X0104000Y0139173D01*
X0104000Y0137575D02*
X0109860Y0137575D01*
X0109908Y0137270D02*
X0110122Y0136611D01*
X0110437Y0135994D01*
X0110844Y0135434D01*
X0111334Y0134944D01*
X0111894Y0134537D01*
X0112511Y0134222D01*
X0113170Y0134008D01*
X0113854Y0133900D01*
X0116800Y0133900D01*
X0116800Y0138300D01*
X0109800Y0138300D01*
X0109800Y0137954D01*
X0109908Y0137270D01*
X0110449Y0135976D02*
X0104000Y0135976D01*
X0104000Y0134378D02*
X0112206Y0134378D01*
X0111424Y0131181D02*
X0104000Y0131181D01*
X0104000Y0132779D02*
X0137800Y0132779D01*
X0137611Y0134378D02*
X0121394Y0134378D01*
X0123151Y0135976D02*
X0136012Y0135976D01*
X0134414Y0137575D02*
X0123740Y0137575D01*
X0123716Y0139173D02*
X0132815Y0139173D01*
X0131217Y0140772D02*
X0123043Y0140772D01*
X0121103Y0142370D02*
X0129618Y0142370D01*
X0128020Y0143969D02*
X0104000Y0143969D01*
X0116800Y0142370D02*
X0116800Y0142370D01*
X0116800Y0140772D02*
X0116800Y0140772D01*
X0116800Y0139173D02*
X0116800Y0139173D01*
X0116800Y0137575D02*
X0116800Y0137575D01*
X0116800Y0135976D02*
X0116800Y0135976D01*
X0116800Y0134378D02*
X0116800Y0134378D01*
X0122176Y0131181D02*
X0138262Y0131181D01*
X0137439Y0140772D02*
X0154810Y0140772D01*
X0153052Y0142370D02*
X0135841Y0142370D01*
X0134242Y0143969D02*
X0151294Y0143969D01*
X0149535Y0145568D02*
X0132644Y0145568D01*
X0131045Y0147166D02*
X0147777Y0147166D01*
X0146018Y0148765D02*
X0129447Y0148765D01*
X0127848Y0150363D02*
X0144260Y0150363D01*
X0142502Y0151962D02*
X0126250Y0151962D01*
X0124651Y0153560D02*
X0140743Y0153560D01*
X0126421Y0145568D02*
X0122324Y0145568D01*
X0123260Y0147166D02*
X0124823Y0147166D01*
X0110402Y0129582D02*
X0104000Y0129582D01*
X0104000Y0127984D02*
X0110200Y0127984D01*
X0110663Y0126385D02*
X0104000Y0126385D01*
X0104000Y0124787D02*
X0112229Y0124787D01*
X0121767Y0121590D02*
X0131979Y0121590D01*
X0130380Y0119991D02*
X0123029Y0119991D01*
X0123400Y0118393D02*
X0129600Y0118393D01*
X0129600Y0116794D02*
X0123106Y0116794D01*
X0121953Y0115196D02*
X0129600Y0115196D01*
X0110740Y0110400D02*
X0107811Y0110400D01*
X0109410Y0108802D02*
X0110200Y0108802D01*
X0116800Y0064043D02*
X0116800Y0064043D01*
X0111090Y0060846D02*
X0092510Y0060846D01*
X0093337Y0059248D02*
X0110263Y0059248D01*
X0110200Y0057649D02*
X0093400Y0057649D01*
X0092798Y0056051D02*
X0099009Y0056051D01*
X0104591Y0056051D02*
X0110802Y0056051D01*
X0163647Y0072036D02*
X0175606Y0072036D01*
X0175000Y0073634D02*
X0165246Y0073634D01*
X0166844Y0075233D02*
X0175000Y0075233D01*
X0175000Y0076832D02*
X0168443Y0076832D01*
X0170041Y0078430D02*
X0174780Y0078430D01*
X0173269Y0080029D02*
X0171640Y0080029D01*
X0179609Y0071500D02*
X0179609Y0071500D01*
X0183910Y0092117D02*
X0183910Y0092117D01*
X0175000Y0092817D02*
X0174000Y0092817D01*
X0174000Y0094415D02*
X0175000Y0094415D01*
X0175000Y0096014D02*
X0174000Y0096014D01*
X0174000Y0097612D02*
X0175000Y0097612D01*
X0183999Y0121590D02*
X0184036Y0121590D01*
X0191592Y0124787D02*
X0191992Y0124787D01*
X0191984Y0126385D02*
X0191584Y0126385D01*
X0191575Y0127984D02*
X0191975Y0127984D01*
X0139815Y0177538D02*
X0120909Y0177538D01*
X0122667Y0175939D02*
X0138217Y0175939D01*
X0137400Y0174341D02*
X0124426Y0174341D01*
X0126184Y0172742D02*
X0137400Y0172742D01*
X0137734Y0171144D02*
X0127942Y0171144D01*
X0188007Y0196720D02*
X0003600Y0196720D01*
X0051770Y0155159D02*
X0057284Y0155159D01*
X0056518Y0156757D02*
X0053368Y0156757D01*
X0036879Y0142001D02*
X0036879Y0137626D01*
X0036879Y0142001D01*
X0036879Y0142001D01*
X0036879Y0140772D02*
X0036879Y0140772D01*
X0036879Y0139173D02*
X0036879Y0139173D01*
X0033525Y0139173D02*
X0029000Y0139173D01*
X0029000Y0140772D02*
X0032678Y0140772D01*
X0029313Y0142370D02*
X0029000Y0142370D01*
X0015000Y0140772D02*
X0003600Y0140772D01*
X0003600Y0139173D02*
X0012130Y0139173D01*
X0010722Y0137575D02*
X0003600Y0137575D01*
X0003600Y0135976D02*
X0010060Y0135976D01*
X0009790Y0134378D02*
X0003600Y0134378D01*
X0003600Y0132779D02*
X0009790Y0132779D01*
X0010351Y0131181D02*
X0003600Y0131181D01*
X0003600Y0129582D02*
X0011234Y0129582D01*
X0011496Y0127984D02*
X0012836Y0127984D01*
X0011900Y0126385D02*
X0015000Y0126385D01*
X0015000Y0124787D02*
X0011900Y0124787D01*
X0011900Y0123188D02*
X0015000Y0123188D01*
X0016052Y0121590D02*
X0011900Y0121590D01*
X0017848Y0121590D02*
X0018521Y0121590D01*
X0020316Y0121590D02*
X0020353Y0121590D01*
X0023382Y0121590D02*
X0024600Y0121590D01*
X0023910Y0122117D02*
X0023910Y0122117D01*
X0020349Y0118393D02*
X0019702Y0118393D01*
X0020443Y0099103D02*
X0020443Y0099103D01*
X0024374Y0088021D02*
X0024600Y0088021D01*
X0050845Y0134378D02*
X0058510Y0134378D01*
X0057242Y0135976D02*
X0049823Y0135976D01*
D25*
X0026800Y0168300D03*
X0046800Y0178300D03*
X0066800Y0173300D03*
X0096800Y0173300D03*
X0101800Y0168300D03*
X0101800Y0053300D03*
X0106800Y0008300D03*
M02*
