%
M48
M72
T01C0.02362
T02C0.03150
T03C0.03200
T04C0.04000
T05C0.04331
T06C0.07480
%
T01
X26800Y168300
X46800Y178300
X66800Y173300
X96800Y173300
X101800Y168300
X106800Y8300
X101800Y53300
T02
X36879Y142001
X32154Y145150
X36879Y148300
X32154Y151450
X36879Y154599
T03
X11800Y13300
X36800Y28300
X36800Y38300
X31791Y53300
X31809Y63300
X46844Y133300
X86800Y128300
X86800Y118300
X86800Y108300
X86800Y98300
X86800Y88300
X86800Y78300
X86800Y68300
X86800Y58300
X86800Y48300
X86800Y38300
X86800Y28300
X61800Y13300
X46756Y83300
X86800Y138300
X86800Y148300
X86800Y158300
X81800Y183300
X86800Y190800
X91800Y183300
X116800Y178300
X116800Y188300
X141800Y173300
X141800Y163300
X156800Y183300
X166800Y183300
X176800Y183300
X176800Y133300
X171800Y58300
X171800Y8300
X116800Y28300
X116800Y38300
X116800Y48300
X116800Y58300
X116800Y68300
X116800Y78300
X116800Y88300
X116800Y98300
X116800Y108300
X116800Y118300
X116800Y128300
X116800Y138300
X116800Y148300
X116800Y158300
X141800Y133300
X151800Y133300
X141800Y108300
X131800Y108300
T04
X61800Y158300
X61800Y148300
X61800Y138300
X6800Y53300
X6800Y63300
X6800Y73300
X6800Y83300
X6800Y93300
X6800Y103300
X6800Y113300
X6800Y123300
X61800Y93300
X61800Y83300
X61800Y73300
X141800Y83300
X161800Y83300
X191852Y113300
X191905Y103300
X191957Y93300
X192009Y83301
X192062Y73301
X192114Y63301
X192167Y53301
X141800Y28300
X141800Y18300
X141800Y8300
X191800Y123300
X191800Y143300
X191800Y153300
X191800Y163300
X191800Y173300
X191800Y183300
X191800Y193300
T05
X21800Y188300
X31800Y188300
X41800Y188300
X51800Y188300
X61800Y188300
T06
X16800Y133930
X16800Y162670
M30
