G75*
%MOIN*%
%OFA0B0*%
%FSLAX25Y25*%
%IPPOS*%
%LPD*%
%AMOC8*
5,1,8,0,0,1.08239X$1,22.5*
%
%ADD10C,0.00000*%
%ADD11C,0.00300*%
%ADD12C,0.00500*%
D10*
X0001800Y0003300D02*
X0001800Y0200150D01*
X0198650Y0200150D01*
X0198650Y0003300D01*
X0001800Y0003300D01*
D11*
X0012567Y0043450D02*
X0011950Y0044067D01*
X0011950Y0046536D01*
X0012567Y0047153D01*
X0013802Y0047153D01*
X0014419Y0046536D01*
X0014419Y0045302D02*
X0013184Y0045302D01*
X0014419Y0045302D02*
X0014419Y0044067D01*
X0013802Y0043450D01*
X0012567Y0043450D01*
X0015633Y0043450D02*
X0015633Y0047153D01*
X0018102Y0043450D01*
X0018102Y0047153D01*
X0019316Y0047153D02*
X0021168Y0047153D01*
X0021785Y0046536D01*
X0021785Y0044067D01*
X0021168Y0043450D01*
X0019316Y0043450D01*
X0019316Y0047153D01*
X0018802Y0063450D02*
X0017567Y0063450D01*
X0016950Y0064067D01*
X0018184Y0065302D02*
X0018802Y0065302D01*
X0019419Y0064684D01*
X0019419Y0064067D01*
X0018802Y0063450D01*
X0020633Y0063450D02*
X0021250Y0063450D01*
X0021250Y0064067D01*
X0020633Y0064067D01*
X0020633Y0063450D01*
X0022475Y0064067D02*
X0023092Y0063450D01*
X0024326Y0063450D01*
X0024943Y0064067D01*
X0024943Y0064684D01*
X0024326Y0065302D01*
X0023709Y0065302D01*
X0024326Y0065302D02*
X0024943Y0065919D01*
X0024943Y0066536D01*
X0024326Y0067153D01*
X0023092Y0067153D01*
X0022475Y0066536D01*
X0019419Y0066536D02*
X0019419Y0065919D01*
X0018802Y0065302D01*
X0019419Y0066536D02*
X0018802Y0067153D01*
X0017567Y0067153D01*
X0016950Y0066536D01*
X0016950Y0073450D02*
X0016950Y0075919D01*
X0018184Y0077153D01*
X0019419Y0075919D01*
X0019419Y0073450D01*
X0019419Y0075302D02*
X0016950Y0075302D01*
X0020633Y0075302D02*
X0023102Y0075302D01*
X0022485Y0077153D02*
X0022485Y0073450D01*
X0020633Y0075302D02*
X0022485Y0077153D01*
X0022485Y0083450D02*
X0021250Y0083450D01*
X0020633Y0084067D01*
X0019419Y0084067D02*
X0019419Y0084684D01*
X0018802Y0085302D01*
X0016950Y0085302D01*
X0016950Y0087153D02*
X0016950Y0083450D01*
X0018802Y0083450D01*
X0019419Y0084067D01*
X0018802Y0085302D02*
X0019419Y0085919D01*
X0019419Y0086536D01*
X0018802Y0087153D01*
X0016950Y0087153D01*
X0020633Y0086536D02*
X0021250Y0087153D01*
X0022485Y0087153D01*
X0023102Y0086536D01*
X0023102Y0085919D01*
X0022485Y0085302D01*
X0023102Y0084684D01*
X0023102Y0084067D01*
X0022485Y0083450D01*
X0022485Y0085302D02*
X0021868Y0085302D01*
X0023102Y0093450D02*
X0020633Y0093450D01*
X0023102Y0095919D01*
X0023102Y0096536D01*
X0022485Y0097153D01*
X0021250Y0097153D01*
X0020633Y0096536D01*
X0019419Y0096536D02*
X0018802Y0097153D01*
X0016950Y0097153D01*
X0016950Y0093450D01*
X0018802Y0093450D01*
X0019419Y0094067D01*
X0019419Y0094684D01*
X0018802Y0095302D01*
X0016950Y0095302D01*
X0018802Y0095302D02*
X0019419Y0095919D01*
X0019419Y0096536D01*
X0018802Y0103450D02*
X0016950Y0103450D01*
X0016950Y0107153D01*
X0018802Y0107153D01*
X0019419Y0106536D01*
X0019419Y0105919D01*
X0018802Y0105302D01*
X0016950Y0105302D01*
X0018802Y0105302D02*
X0019419Y0104684D01*
X0019419Y0104067D01*
X0018802Y0103450D01*
X0020633Y0103450D02*
X0023102Y0103450D01*
X0021868Y0103450D02*
X0021868Y0107153D01*
X0020633Y0105919D01*
X0020633Y0113450D02*
X0023102Y0113450D01*
X0021868Y0113450D02*
X0021868Y0117153D01*
X0020633Y0115919D01*
X0019419Y0115919D02*
X0019419Y0113450D01*
X0019419Y0115302D02*
X0016950Y0115302D01*
X0016950Y0115919D02*
X0018184Y0117153D01*
X0019419Y0115919D01*
X0016950Y0115919D02*
X0016950Y0113450D01*
X0016950Y0123450D02*
X0016950Y0125919D01*
X0018184Y0127153D01*
X0019419Y0125919D01*
X0019419Y0123450D01*
X0020633Y0124067D02*
X0020633Y0126536D01*
X0021250Y0127153D01*
X0022485Y0127153D01*
X0023102Y0126536D01*
X0020633Y0124067D01*
X0021250Y0123450D01*
X0022485Y0123450D01*
X0023102Y0124067D01*
X0023102Y0126536D01*
X0019419Y0125302D02*
X0016950Y0125302D01*
X0026158Y0067153D02*
X0026158Y0064684D01*
X0027392Y0063450D01*
X0028627Y0064684D01*
X0028627Y0067153D01*
X0176950Y0067153D02*
X0176950Y0065302D01*
X0178184Y0065919D01*
X0178802Y0065919D01*
X0179419Y0065302D01*
X0179419Y0064067D01*
X0178802Y0063450D01*
X0177567Y0063450D01*
X0176950Y0064067D01*
X0176950Y0067153D02*
X0179419Y0067153D01*
X0180633Y0067153D02*
X0180633Y0064684D01*
X0181868Y0063450D01*
X0183102Y0064684D01*
X0183102Y0067153D01*
X0180633Y0073450D02*
X0180633Y0074067D01*
X0183102Y0076536D01*
X0183102Y0077153D01*
X0180633Y0077153D01*
X0179419Y0076536D02*
X0179419Y0075919D01*
X0178802Y0075302D01*
X0176950Y0075302D01*
X0176950Y0077153D02*
X0176950Y0073450D01*
X0178802Y0073450D01*
X0179419Y0074067D01*
X0179419Y0074684D01*
X0178802Y0075302D01*
X0179419Y0076536D02*
X0178802Y0077153D01*
X0176950Y0077153D01*
X0176950Y0083450D02*
X0178802Y0083450D01*
X0179419Y0084067D01*
X0179419Y0084684D01*
X0178802Y0085302D01*
X0176950Y0085302D01*
X0176950Y0087153D02*
X0176950Y0083450D01*
X0178802Y0085302D02*
X0179419Y0085919D01*
X0179419Y0086536D01*
X0178802Y0087153D01*
X0176950Y0087153D01*
X0180633Y0086536D02*
X0180633Y0085919D01*
X0181250Y0085302D01*
X0182485Y0085302D01*
X0183102Y0084684D01*
X0183102Y0084067D01*
X0182485Y0083450D01*
X0181250Y0083450D01*
X0180633Y0084067D01*
X0180633Y0084684D01*
X0181250Y0085302D01*
X0182485Y0085302D02*
X0183102Y0085919D01*
X0183102Y0086536D01*
X0182485Y0087153D01*
X0181250Y0087153D01*
X0180633Y0086536D01*
X0181250Y0093450D02*
X0182485Y0093450D01*
X0183102Y0094067D01*
X0183102Y0096536D01*
X0182485Y0097153D01*
X0181250Y0097153D01*
X0180633Y0096536D01*
X0180633Y0095919D01*
X0181250Y0095302D01*
X0183102Y0095302D01*
X0181250Y0093450D02*
X0180633Y0094067D01*
X0179419Y0094067D02*
X0179419Y0094684D01*
X0178802Y0095302D01*
X0176950Y0095302D01*
X0176950Y0097153D02*
X0176950Y0093450D01*
X0178802Y0093450D01*
X0179419Y0094067D01*
X0178802Y0095302D02*
X0179419Y0095919D01*
X0179419Y0096536D01*
X0178802Y0097153D01*
X0176950Y0097153D01*
X0176950Y0103450D02*
X0178802Y0103450D01*
X0179419Y0104067D01*
X0179419Y0104684D01*
X0178802Y0105302D01*
X0176950Y0105302D01*
X0176950Y0107153D02*
X0176950Y0103450D01*
X0178802Y0105302D02*
X0179419Y0105919D01*
X0179419Y0106536D01*
X0178802Y0107153D01*
X0176950Y0107153D01*
X0180633Y0105919D02*
X0181868Y0107153D01*
X0181868Y0103450D01*
X0183102Y0103450D02*
X0180633Y0103450D01*
X0184316Y0104067D02*
X0184933Y0103450D01*
X0186168Y0103450D01*
X0186785Y0104067D01*
X0186785Y0104684D01*
X0186168Y0105302D01*
X0185551Y0105302D01*
X0186168Y0105302D02*
X0186785Y0105919D01*
X0186785Y0106536D01*
X0186168Y0107153D01*
X0184933Y0107153D01*
X0184316Y0106536D01*
X0183102Y0113450D02*
X0180633Y0113450D01*
X0181868Y0113450D02*
X0181868Y0117153D01*
X0180633Y0115919D01*
X0179419Y0115919D02*
X0178802Y0115302D01*
X0176950Y0115302D01*
X0176950Y0117153D02*
X0176950Y0113450D01*
X0178802Y0113450D01*
X0179419Y0114067D01*
X0179419Y0114684D01*
X0178802Y0115302D01*
X0179419Y0115919D02*
X0179419Y0116536D01*
X0178802Y0117153D01*
X0176950Y0117153D01*
X0176950Y0123450D02*
X0178802Y0123450D01*
X0179419Y0124067D01*
X0179419Y0124684D01*
X0178802Y0125302D01*
X0176950Y0125302D01*
X0176950Y0127153D02*
X0176950Y0123450D01*
X0178802Y0125302D02*
X0179419Y0125919D01*
X0179419Y0126536D01*
X0178802Y0127153D01*
X0176950Y0127153D01*
X0180633Y0125919D02*
X0181868Y0127153D01*
X0181868Y0123450D01*
X0183102Y0123450D02*
X0180633Y0123450D01*
X0184316Y0124067D02*
X0184933Y0123450D01*
X0186168Y0123450D01*
X0186785Y0124067D01*
X0186785Y0125302D01*
X0186168Y0125919D01*
X0185551Y0125919D01*
X0184316Y0125302D01*
X0184316Y0127153D01*
X0186785Y0127153D01*
X0186168Y0117153D02*
X0184316Y0115302D01*
X0186785Y0115302D01*
X0186168Y0117153D02*
X0186168Y0113450D01*
X0185633Y0047153D02*
X0188102Y0043450D01*
X0188102Y0047153D01*
X0189316Y0047153D02*
X0191168Y0047153D01*
X0191785Y0046536D01*
X0191785Y0044067D01*
X0191168Y0043450D01*
X0189316Y0043450D01*
X0189316Y0047153D01*
X0185633Y0047153D02*
X0185633Y0043450D01*
X0184419Y0044067D02*
X0184419Y0045302D01*
X0183184Y0045302D01*
X0181950Y0046536D02*
X0181950Y0044067D01*
X0182567Y0043450D01*
X0183802Y0043450D01*
X0184419Y0044067D01*
X0184419Y0046536D02*
X0183802Y0047153D01*
X0182567Y0047153D01*
X0181950Y0046536D01*
D12*
X0037469Y0132946D02*
X0002036Y0132946D01*
X0002036Y0163654D01*
X0037469Y0163654D01*
X0037469Y0132946D01*
X0023690Y0145347D02*
X0004005Y0143379D01*
X0004005Y0140426D02*
X0021721Y0142394D01*
X0023690Y0145347D02*
X0023690Y0151253D01*
X0004005Y0153221D01*
X0004005Y0156174D02*
X0019753Y0154206D01*
X0019753Y0162080D02*
X0004005Y0160111D01*
X0004005Y0156174D01*
X0004005Y0140426D02*
X0004005Y0136489D01*
X0021721Y0134520D01*
M02*
